<?xml version="1.0" encoding="utf-8"?>
<!-- Generator: Adobe Illustrator 24.3.0, SVG Export Plug-In . SVG Version: 6.00 Build 0)  -->
<svg version="1.1" id="Слой_1" xmlns="http://www.w3.org/2000/svg" xmlns:xlink="http://www.w3.org/1999/xlink" x="0px" y="0px"
	 viewBox="0 0 675.7 716.3" style="enable-background:new 0 0 675.7 716.3;" xml:space="preserve">
<style type="text/css">
	.st0{display:none;}
	.st1{display:inline;fill:none;stroke:#FFFFFF;stroke-miterlimit:10;}
	.st2{display:inline;fill:none;stroke:#FFFFFF;stroke-width:0.1;stroke-miterlimit:10;}
	.st3{fill:none;stroke:#FFFFFF;stroke-miterlimit:10;}
	.st4{fill:none;stroke:#FFFFFF;stroke-width:0.1;stroke-miterlimit:10;}
	.st5{fill:#DCA9A0;}
	.st6{fill:#DDA899;}
	.st7{fill:#DCA492;}
	.st8{fill:#D39589;}
	.st9{fill:none;stroke:#F40CB8;stroke-width:0.1;stroke-miterlimit:10;}
	.st10{fill:#C96E66;}
	.st11{fill:#854853;}
	.st12{fill:#E49090;}
	.st13{fill:#E48E8B;}
	.st14{fill:#E69995;}
	.st15{fill:#E4948F;}
	.st16{fill:#AE6963;}
	.st17{fill:#DA847F;}
	.st18{fill:#303355;}
	.st19{fill:#AF7678;}
	.st20{fill:#9D6169;}
	.st21{fill:#F2AFA8;}
	.st22{fill:#BD8970;}
	.st23{fill:#D29583;}
	.st24{fill:#DBA095;}
	.st25{fill:#F0B3A8;}
	.st26{fill:#F5BDAF;}
	.st27{fill:#F2B6AA;}
	.st28{fill:#F7C2B8;}
	.st29{fill:#FFC3B8;}
	.st30{fill:#FFCFC4;}
	.st31{fill:#E4AD9A;}
	.st32{fill:#F0B9A7;}
	.st33{fill:#FFCDC7;}
	.st34{fill:#FCBAAD;}
	.st35{fill:#FFC6C4;}
	.st36{fill:#FFA497;}
	.st37{fill:#B66860;}
	.st38{fill:#E38B7A;}
	.st39{fill:#DD877A;}
	.st40{fill:#D97565;}
	.st41{fill:#F28F7E;}
	.st42{fill:#400516;}
	.st43{fill:#FCA797;}
	.st44{fill:#F3ABA1;}
	.st45{fill:#DA98A0;}
	.st46{fill:#7E4240;}
	.st47{fill:#DF8B84;}
	.st48{fill:#E7C3CC;}
	.st49{fill:#D7CAEA;}
	.st50{fill:#E6BFBE;}
	.st51{fill:#C9998F;}
	.st52{fill:#DECBD1;}
	.st53{fill:#A8B7CE;}
	.st54{fill:#D6D3E0;}
	.st55{fill:#9198B9;}
	.st56{fill:#7D86A9;}
	.st57{fill:#192046;}
	.st58{fill:#90A5C7;}
	.st59{fill:#A3B4D7;}
	.st60{fill:#F7B2FA;}
	.st61{fill:#CEE5EF;}
	.st62{fill:#6E92AC;}
	.st63{fill:#7B92AC;}
	.st64{fill:#677594;}
	.st65{fill:#737D94;}
	.st66{fill:#686D86;}
	.st67{fill:#647B93;}
	.st68{fill:#4D6680;}
	.st69{fill:#737FA8;}
	.st70{fill:#6E779F;}
	.st71{fill:#7092A7;}
	.st72{fill:#6090C6;}
	.st73{fill:#0089AE;}
	.st74{fill:#006AA1;}
	.st75{fill:#00527D;}
	.st76{fill:#144567;}
	.st77{fill:#1A1F41;}
	.st78{fill:#004067;}
	.st79{fill:#38282E;}
	.st80{fill:#132235;}
	.st81{fill:#253A6B;}
	.st82{fill:#006187;}
	.st83{fill:#C3BDE6;}
	.st84{fill:#8783AC;}
	.st85{fill:#5E4D79;}
	.st86{fill:#65A4D1;}
	.st87{fill:#969BC9;}
	.st88{fill:#F7DBE7;}
	.st89{fill:#FFC7CE;}
	.st90{fill:#F6B9C2;}
	.st91{fill:#F7B4BB;}
	.st92{fill:#FFC1C6;}
	.st93{fill:#F4ACB0;}
	.st94{fill:#F1B8C3;}
	.st95{fill:#080A25;}
	.st96{fill:#11172C;}
	.st97{fill:#0A1932;}
	.st98{fill:#001C3C;}
	.st99{fill:#001936;}
	.st100{fill:#000B25;}
	.st101{fill:#001938;}
	.st102{fill:#001735;}
	.st103{fill:#001733;}
	.st104{fill:#001736;}
	.st105{fill:#001630;}
	.st106{fill:#001634;}
	.st107{fill:#011C3C;}
	.st108{fill:#03173B;}
	.st109{fill:#001635;}
	.st110{fill:#001737;}
	.st111{fill:#001738;}
	.st112{fill:#011B3E;}
	.st113{fill:#031338;}
	.st114{fill:#001A38;}
	.st115{fill:#02122E;}
	.st116{fill:#06132F;}
	.st117{fill:#001631;}
	.st118{fill:#00102C;}
	.st119{fill:#001230;}
	.st120{fill:#00122E;}
	.st121{fill:#000F2D;}
	.st122{fill:#000E2D;}
	.st123{fill:#041530;}
	.st124{fill:#001935;}
	.st125{fill:#001530;}
	.st126{fill:#00102D;}
	.st127{fill:#00152F;}
	.st128{fill:#09172C;}
	.st129{fill:#00102B;}
	.st130{fill:#001030;}
	.st131{fill:#000F2C;}
	.st132{fill:#02152E;}
	.st133{fill:#000E25;}
	.st134{fill:#010E2A;}
	.st135{fill:#00132B;}
	.st136{fill:#001228;}
	.st137{fill:#00152E;}
	.st138{fill:#00102E;}
	.st139{fill:#000F2B;}
	.st140{fill:#001529;}
	.st141{fill:#000C2C;}
	.st142{fill:#28172B;}
	.st143{fill:#001639;}
	.st144{fill:#05162E;}
	.st145{fill:#01122D;}
	.st146{fill:#00132E;}
	.st147{fill:#08102C;}
	.st148{fill:#00132C;}
	.st149{fill:#020F20;}
	.st150{fill:#3A4659;}
	.st151{fill:#323F4F;}
	.st152{fill:#32354F;}
	.st153{fill:#020C22;}
	.st154{fill:#2E364B;}
	.st155{fill:#2E364F;}
	.st156{fill:#3E4357;}
	.st157{fill:#37384A;}
	.st158{fill:#424059;}
	.st159{fill:#0D1228;}
	.st160{fill:#444455;}
	.st161{fill:#031C30;}
	.st162{fill:#41445B;}
	.st163{fill:#2A3A4D;}
	.st164{fill:#3B3B52;}
	.st165{fill:#343B53;}
	.st166{fill:#31384D;}
	.st167{fill:#3C354E;}
	.st168{fill:#2D3F53;}
	.st169{fill:#364450;}
	.st170{fill:#2F354B;}
	.st171{fill:#363953;}
	.st172{fill:#00192C;}
	.st173{fill:#343B47;}
	.st174{fill:#353D46;}
	.st175{fill:#353B46;}
	.st176{fill:#2F3B4D;}
	.st177{fill:#2E4555;}
	.st178{fill:#33334D;}
	.st179{fill:#373F54;}
	.st180{fill:#01192E;}
	.st181{fill:#2A314B;}
	.st182{fill:#2B3B51;}
	.st183{fill:#353F55;}
	.st184{fill:#343750;}
	.st185{fill:#3A4054;}
	.st186{fill:#313D54;}
	.st187{fill:#2F3A4D;}
	.st188{fill:#262F44;}
	.st189{fill:#00011A;}
	.st190{fill:#373A50;}
	.st191{fill:#242C43;}
	.st192{fill:#384055;}
	.st193{fill:#3A4258;}
	.st194{fill:#27364D;}
	.st195{fill:#060D1D;}
	.st196{fill:#021024;}
	.st197{fill:#464653;}
	.st198{fill:#52383F;}
	.st199{fill:#9B8E86;}
	.st200{fill:#3E3139;}
	.st201{fill:#B78E81;}
	.st202{fill:#B78C83;}
	.st203{fill:#C19282;}
	.st204{fill:#BF9283;}
	.st205{fill:#AD877C;}
	.st206{fill:#B08A7C;}
	.st207{fill:#9F8283;}
	.st208{fill:#6B464B;}
	.st209{fill:#3F323E;}
	.st210{fill:#2E2938;}
	.st211{fill:#00051E;}
	.st212{fill:#020C1E;}
	.st213{fill:#00071D;}
	.st214{fill:#01071C;}
	.st215{fill:#02061A;}
	.st216{fill:#04081E;}
	.st217{fill:#00051C;}
	.st218{fill:#000824;}
	.st219{fill:#06102A;}
	.st220{fill:#000D28;}
	.st221{fill:#14192C;}
	.st222{fill:#292433;}
	.st223{fill:#463744;}
	.st224{fill:#373540;}
	.st225{fill:#373343;}
	.st226{fill:#2F2939;}
	.st227{fill:#352934;}
	.st228{fill:#382D3D;}
	.st229{fill:#624A4D;}
	.st230{fill:#3B313F;}
	.st231{fill:#61484C;}
	.st232{fill:#422E3B;}
	.st233{fill:#413542;}
	.st234{fill:#1B1729;}
	.st235{fill:#0C1522;}
	.st236{fill:#2B2333;}
	.st237{fill:#0D192F;}
	.st238{fill:#302A39;}
	.st239{fill:#2A2A3C;}
	.st240{fill:#0B0D20;}
	.st241{fill:#021E38;}
	.st242{fill:#535669;}
	.st243{fill:#19162C;}
	.st244{fill:#262E45;}
	.st245{fill:#A47D7B;}
	.st246{fill:#926E71;}
	.st247{fill:#77575F;}
	.st248{fill:#242F43;}
	.st249{fill:#5C7B8A;}
	.st250{fill:#5B6A88;}
	.st251{fill:#3C2E39;}
	.st252{fill:#463540;}
	.st253{fill:#59627E;}
	.st254{fill:#11314A;}
	.st255{fill:#627D93;}
	.st256{fill:#7E7F98;}
	.st257{fill:#513D49;}
	.st258{fill:#1B2842;}
	.st259{fill:#68809B;}
	.st260{fill:#5F7689;}
	.st261{fill:#0F2B45;}
	.st262{fill:#3D425E;}
	.st263{fill:#3A576F;}
	.st264{fill:#334C5A;}
	.st265{fill:#9C87AB;}
	.st266{fill:#84A5CC;}
	.st267{fill:#37374B;}
	.st268{fill:#564368;}
	.st269{fill:#1B2C48;}
	.st270{fill:#252237;}
	.st271{fill:#221B3A;}
	.st272{fill:#383546;}
	.st273{fill:#464C58;}
	.st274{fill:#055670;}
	.st275{fill:#303246;}
	.st276{fill:#37647B;}
	.st277{fill:#616779;}
	.st278{fill:#515F84;}
	.st279{fill:#525A62;}
	.st280{fill:#3F4964;}
	.st281{fill:#6F828E;}
	.st282{fill:#0B1E29;}
	.st283{fill:#090E26;}
	.st284{fill:#001531;}
	.st285{fill:#050B18;}
	.st286{fill:#000816;}
	.st287{fill:#1B283A;}
	.st288{fill:#030A25;}
	.st289{fill:#120A26;}
	.st290{fill:#D3CCDE;}
	.st291{fill:#968FAE;}
	.st292{fill:#7E778C;}
	.st293{fill:#ADC8D6;}
	.st294{fill:#A4AFCB;}
	.st295{fill:#98A2BC;}
	.st296{fill:#667776;}
	.st297{fill:#D3A5AA;}
	.st298{fill:#9B98AE;}
	.st299{fill:#9097AF;}
	.st300{fill:#967A7D;}
	.st301{fill:#987789;}
	.st302{fill:#D4A6B6;}
	.st303{fill:#C8A7C0;}
	.st304{fill:#BAB4D0;}
	.st305{fill:#BACBED;}
	.st306{fill:#D1D4F5;}
	.st307{fill:#FED6F2;}
	.st308{fill:#535468;}
	.st309{fill:#C2C3EE;}
	.st310{fill:#D3D0DC;}
	.st311{fill:#C5CDE1;}
	.st312{fill:#ECCEDA;}
	.st313{fill:#F4B3CB;}
	.st314{fill:#F3A88B;}
	.st315{fill:#FFBCB3;}
	.st316{fill:#FFB1A5;}
	.st317{fill:#FFCECD;}
	.st318{fill:#F2A99E;}
	.st319{fill:#F4A89E;}
	.st320{fill:#E5A099;}
	.st321{fill:#F3A392;}
	.st322{fill:#EE9A8B;}
	.st323{fill:#6C2128;}
	.st324{fill:#953E4A;}
	.st325{fill:#C26D67;}
	.st326{fill:#EF8F7D;}
	.st327{fill:#EF8C7C;}
	.st328{fill:#DF786E;}
	.st329{fill:#C66D5C;}
	.st330{fill:#D4786D;}
	.st331{fill:#EF9A8D;}
	.st332{fill:#E49884;}
	.st333{fill:#FFA395;}
	.st334{fill:#D18B83;}
	.st335{fill:#DD9182;}
	.st336{fill:#A97A7B;}
	.st337{fill:#F2A692;}
	.st338{fill:#F6ABA3;}
	.st339{fill:#EB9192;}
	.st340{fill:#6E425D;}
	.st341{fill:#814D57;}
	.st342{fill:#D47D72;}
	.st343{fill:#86424D;}
	.st344{fill:#934F50;}
	.st345{fill:#996D7B;}
	.st346{fill:#81655B;}
	.st347{fill:#AA7B70;}
	.st348{fill:#BF9182;}
	.st349{fill:#87615B;}
	.st350{fill:#AC7D6D;}
	.st351{fill:#856161;}
	.st352{fill:#64453D;}
	.st353{fill:#6A535C;}
	.st354{fill:#734A4E;}
	.st355{fill:#9F7068;}
	.st356{fill:#BC8978;}
	.st357{fill:#675851;}
	.st358{fill:#855B5C;}
	.st359{fill:#CB8C7F;}
	.st360{fill:#B88A85;}
	.st361{fill:#DFACA0;}
	.st362{fill:#D9B8AD;}
	.st363{fill:#F3BABA;}
	.st364{fill:#DD9685;}
	.st365{fill:#AF8180;}
	.st366{fill:#332A3C;}
	.st367{fill:#CC9387;}
	.st368{fill:#C39084;}
	.st369{fill:#926566;}
	.st370{fill:#A06C69;}
	.st371{fill:#88575E;}
	.st372{fill:#895656;}
	.st373{fill:#25273C;}
	.st374{fill:#030D26;}
	.st375{fill:#161931;}
	.st376{fill:#865856;}
	.st377{fill:#BD7C71;}
	.st378{fill:#B1736A;}
	.st379{fill:#C0836F;}
	.st380{fill:#E49C8C;}
	.st381{fill:#F3BEB0;}
	.st382{fill:#FFD0CC;}
	.st383{fill:#FFD2D0;}
	.st384{fill:#F7C5BA;}
	.st385{fill:#F9C7C0;}
	.st386{fill:#C5988A;}
	.st387{fill:#D8A596;}
	.st388{fill:#DAA38E;}
	.st389{fill:#F6CAB8;}
	.st390{fill:#F8C6C7;}
	.st391{fill:#FDD4D1;}
	.st392{fill:#FDD3CF;}
	.st393{fill:#F4C9C0;}
	.st394{fill:#00234F;}
	.st395{fill:#112741;}
	.st396{fill:#061E38;}
	.st397{fill:#000737;}
	.st398{fill:#012D5F;}
	.st399{fill:#006BBB;}
	.st400{fill:#008ED2;}
	.st401{fill:#006BB8;}
	.st402{fill:#0072B1;}
	.st403{fill:#007FCA;}
	.st404{fill:#246B9E;}
	.st405{fill:#221A38;}
	.st406{fill:#011F31;}
	.st407{fill:#002667;}
	.st408{fill:#00A1E9;}
	.st409{fill:#387DB6;}
	.st410{fill:#A99BC1;}
	.st411{fill:#0B527B;}
	.st412{fill:#4E7EC6;}
	.st413{fill:#00BFFF;}
	.st414{fill:#00DEFF;}
	.st415{fill:#93EFFF;}
	.st416{fill:#00E7F8;}
	.st417{fill:#00BEFF;}
	.st418{fill:#00D3FC;}
	.st419{fill:#00C3FE;}
	.st420{fill:#00B3F1;}
	.st421{fill:#00A6E8;}
	.st422{fill:#00BCFF;}
	.st423{fill:#00BFEE;}
	.st424{fill:#24CDFF;}
	.st425{fill:#00CAF1;}
	.st426{fill:#002D5F;}
	.st427{fill:#002660;}
	.st428{fill:#00233C;}
	.st429{fill:#00325F;}
	.st430{fill:#005A7B;}
	.st431{fill:#003880;}
	.st432{fill:#0D153B;}
	.st433{fill:#00316F;}
	.st434{fill:#00517B;}
	.st435{fill:#131740;}
	.st436{fill:#54CEF7;}
	.st437{fill:#007EAA;}
	.st438{fill:#005380;}
	.st439{fill:#0066C1;}
	.st440{fill:#8DFBF6;}
	.st441{fill:#A3FFF5;}
	.st442{fill:#56D2FF;}
	.st443{fill:#5FE6FF;}
	.st444{fill:#00C2F4;}
	.st445{fill:#75C1F7;}
	.st446{fill:#4DA8D9;}
	.st447{fill:#3CCAFF;}
	.st448{fill:#00C0E6;}
	.st449{fill:#FFDEE2;}
	.st450{fill:#26BAF3;}
	.st451{fill:#00C4FF;}
	.st452{fill:#00F1FF;}
	.st453{fill:#00D1EA;}
	.st454{fill:#A0FFFD;}
	.st455{fill:#00E4FE;}
	.st456{fill:#60FBFC;}
	.st457{fill:#00D0E2;}
	.st458{fill:#B45F59;}
	.st459{fill:#B75B5F;}
	.st460{fill:#B9545C;}
	.st461{fill:#A74F4B;}
	.st462{fill:#D76A6C;}
	.st463{fill:#C56062;}
	.st464{fill:#D47074;}
	.st465{fill:#BA5257;}
	.st466{fill:#C45B5F;}
	.st467{fill:#A74543;}
	.st468{fill:#B05058;}
	.st469{fill:#A8505D;}
	.st470{fill:#E99F8D;}
	.st471{fill:#F59A96;}
	.st472{fill:#F29892;}
	.st473{fill:#C17568;}
	.st474{fill:#DB847A;}
	.st475{fill:#DF6E6C;}
	.st476{fill:#EF918B;}
	.st477{fill:#EA8882;}
	.st478{fill:#E37A7F;}
	.st479{fill:#B15651;}
	.st480{fill:#A16D63;}
	.st481{fill:#BB836F;}
	.st482{fill:#E8B4A1;}
	.st483{fill:#FDD3C9;}
	.st484{fill:#FCD4C9;}
	.st485{fill:#F6C6B8;}
	.st486{fill:#F8CBBD;}
	.st487{fill:#FCCAB9;}
	.st488{fill:#F6C1B1;}
	.st489{fill:#E3AD99;}
	.st490{fill:#C98E75;}
	.st491{fill:#C68874;}
	.st492{fill:#745052;}
	.st493{fill:#825856;}
	.st494{fill:#E3A794;}
	.st495{fill:#E6A696;}
	.st496{fill:#C2846E;}
	.st497{fill:#D69A81;}
	.st498{fill:#F3C4B1;}
	.st499{fill:#F5CCBD;}
	.st500{fill:#FED7CF;}
	.st501{fill:#FDD4C9;}
	.st502{fill:#F2C7B4;}
	.st503{fill:#FFD9D4;}
	.st504{fill:#F7D2C9;}
	.st505{fill:#E2B3A9;}
	.st506{fill:#F0BFAF;}
	.st507{fill:#F2BDAD;}
	.st508{fill:#DDAE95;}
	.st509{fill:#D99987;}
	.st510{fill:#DCA28B;}
	.st511{fill:#FFD0C3;}
	.st512{fill:#E2AF9C;}
	.st513{fill:#DDA89B;}
	.st514{fill:#CDA191;}
	.st515{fill:#DEA890;}
	.st516{fill:#E4ADA2;}
	.st517{fill:#E2AC96;}
	.st518{fill:#E5B3A0;}
	.st519{fill:#E7B5A1;}
	.st520{fill:#F1C2B3;}
	.st521{fill:#DA9F91;}
	.st522{fill:#E2AF9B;}
	.st523{fill:#DDA397;}
	.st524{fill:#CD957F;}
	.st525{fill:#D29276;}
	.st526{fill:#C38776;}
	.st527{fill:#D5927B;}
	.st528{fill:#D5957F;}
	.st529{fill:#FAC9B8;}
	.st530{fill:#FAC6B8;}
	.st531{fill:#FCBEA6;}
	.st532{fill:#F8BAA6;}
	.st533{fill:#FFC0B5;}
	.st534{fill:#FBC5B6;}
	.st535{fill:#F8AD9A;}
	.st536{fill:#F9BBAE;}
	.st537{fill:#F9BAAA;}
	.st538{fill:#F5B3A6;}
	.st539{fill:#FFBFB2;}
	.st540{fill:#E28E7D;}
	.st541{fill:#F3AE9D;}
	.st542{fill:#EFA896;}
	.st543{fill:#F6C5B0;}
	.st544{fill:#FCC2B3;}
	.st545{fill:#F9B19F;}
	.st546{fill:#F7C1B2;}
	.st547{fill:#EFB5A3;}
	.st548{fill:#F6B8A5;}
	.st549{fill:#D38074;}
	.st550{fill:#EEA78C;}
	.st551{fill:#F2B49E;}
	.st552{fill:#E3A38A;}
	.st553{fill:#F8B9A8;}
	.st554{fill:#F4B6A7;}
	.st555{fill:#B27663;}
	.st556{fill:#DB9983;}
	.st557{fill:#F0AFA2;}
	.st558{fill:#D89584;}
	.st559{fill:#FFCBC4;}
	.st560{fill:#E4A79C;}
	.st561{fill:#E8A49A;}
	.st562{fill:#E39B97;}
	.st563{fill:#DB8E80;}
	.st564{fill:#AF7265;}
	.st565{fill:#D39287;}
	.st566{fill:#CA9385;}
	.st567{fill:#C0776B;}
	.st568{fill:#C77973;}
	.st569{fill:#D57F7C;}
	.st570{fill:#BE6C63;}
	.st571{fill:#CF7D76;}
	.st572{fill:#D9877E;}
	.st573{fill:#AF7465;}
	.st574{fill:#965F5A;}
	.st575{fill:#CF8075;}
	.st576{fill:#B16A6A;}
	.st577{fill:#B36A6C;}
	.st578{fill:#B06565;}
	.st579{fill:#AD776D;}
	.st580{fill:#31201F;}
	.st581{fill:#442933;}
	.st582{fill:#C58993;}
	.st583{fill:#3372BA;}
	.st584{fill:#568CAE;}
	.st585{fill:#005498;}
	.st586{fill:#DFF6EC;}
	.st587{fill:#A5FFEC;}
	.st588{fill:#00C3EB;}
	.st589{fill:#00C6F7;}
	.st590{fill:#00D1FF;}
	.st591{fill:none;stroke:#F40CB8;stroke-width:0.1;stroke-linejoin:round;stroke-miterlimit:10;}
	.st592{fill:#001C38;}
	.st593{fill:#6EDEEE;}
	.st594{fill:#81FFFF;}
	.st595{fill:#0080DF;}
	.st596{fill:#004367;}
	.st597{fill:#00D2FF;}
	.st598{fill:#002A5B;}
	.st599{fill:#003267;}
	.st600{fill:#002348;}
	.st601{fill:#71D4D9;}
	.st602{fill:#005AAD;}
	.st603{fill:#00336F;}
	.st604{fill:#00C6EB;}
	.st605{fill:#0092DB;}
	.st606{fill:#0ACFF0;}
	.st607{fill:#62F1EA;}
	.st608{fill:#00D5FF;}
	.st609{fill:#27E4F9;}
	.st610{fill:#54CEFC;}
	.st611{fill:#1B1B41;}
	.st612{fill:#011B30;}
	.st613{fill:#00C5F6;}
	.st614{fill:#004A7F;}
	.st615{fill:#40F7F3;}
	.st616{fill:#AFFAF6;}
	.st617{fill:#C4ECF9;}
	.st618{fill:#004A4F;}
	.st619{fill:#3EE2E0;}
	.st620{fill:#002A53;}
	.st621{fill:#001038;}
	.st622{fill:#30BDDF;}
	.st623{fill:#00F7DB;}
	.st624{fill:#00B8B9;}
	.st625{fill:#001E4E;}
	.st626{fill:#001B4B;}
	.st627{fill:#002834;}
	.st628{fill:#00C3F2;}
	.st629{fill:#0091D1;}
	.st630{fill:#3CD0FF;}
	.st631{fill:#00467E;}
	.st632{fill:#00325D;}
	.st633{fill:#171B2F;}
	.st634{fill:#0E0F2E;}
	.st635{fill:#0D1B38;}
	.st636{fill:#0E1940;}
	.st637{fill:#001F39;}
	.st638{fill:#001A3E;}
	.st639{fill:#232D48;}
	.st640{fill:#0D1931;}
	.st641{fill:#311C30;}
	.st642{fill:#CFC9D4;}
	.st643{fill:#D8DEE7;}
	.st644{fill:#DEDAEA;}
	.st645{fill:#D6E7F4;}
	.st646{fill:#DBDEEA;}
	.st647{fill:#D7DBE6;}
	.st648{fill:#F4D8EC;}
	.st649{fill:#E0E0EB;}
	.st650{fill:#D2E0F3;}
	.st651{fill:#DFE2EE;}
	.st652{fill:#E6E9F5;}
	.st653{fill:#E0E4EF;}
	.st654{fill:#DBDBEA;}
	.st655{fill:#E3E0ED;}
	.st656{fill:#EDDBE8;}
	.st657{fill:#D4D7E3;}
	.st658{fill:#D3D8DE;}
	.st659{fill:#D4CCDE;}
	.st660{fill:#C7D5E1;}
	.st661{fill:#CFC9D8;}
	.st662{fill:#C0BDC7;}
	.st663{fill:#A9A7B0;}
	.st664{fill:#A19393;}
	.st665{fill:#B5ADB6;}
	.st666{fill:#D8DBE6;}
	.st667{fill:#D4D7E1;}
	.st668{fill:#B9BACA;}
	.st669{fill:#D4D7E2;}
	.st670{fill:#DDE0EC;}
	.st671{fill:#DCDFEA;}
	.st672{fill:#D2D9E3;}
	.st673{fill:#D5D8E4;}
	.st674{fill:#CFD6E0;}
	.st675{fill:#C8CBDA;}
	.st676{fill:#B3B8C6;}
	.st677{fill:#C0C9D9;}
	.st678{fill:#CED1DE;}
	.st679{fill:#CFD0DB;}
	.st680{fill:#CDD0DD;}
	.st681{fill:#D3D9E7;}
	.st682{fill:#CED1DD;}
	.st683{fill:#CBCEDC;}
	.st684{fill:#D6D9E4;}
	.st685{fill:#DFE2ED;}
	.st686{fill:#D9DFE9;}
	.st687{fill:#D8DCE8;}
	.st688{fill:#DAE2EC;}
	.st689{fill:#CBCDDB;}
	.st690{fill:#CBD5E2;}
	.st691{fill:#DAE5EF;}
	.st692{fill:#C5D1E2;}
	.st693{fill:#D6DAE9;}
	.st694{fill:#E1E4EF;}
	.st695{fill:#E3E6F0;}
	.st696{fill:#DFDFEE;}
	.st697{fill:#CFDAEA;}
	.st698{fill:#D1D5E1;}
	.st699{fill:#CAD4E2;}
	.st700{fill:#D5DDEA;}
	.st701{fill:#E1E5F1;}
	.st702{fill:#E1E4F0;}
	.st703{fill:#DDE1ED;}
	.st704{fill:#E1E3F1;}
	.st705{fill:#DDE3F2;}
	.st706{fill:#DFE5F2;}
	.st707{fill:#E2E9F1;}
	.st708{fill:#D5DAE7;}
	.st709{fill:#E0E3F0;}
	.st710{fill:#DCE2EF;}
	.st711{fill:#AFB6C2;}
	.st712{fill:#C1C5D3;}
	.st713{fill:#D2DAE7;}
	.st714{fill:#D4DBE4;}
	.st715{fill:#D5DBE9;}
	.st716{fill:#D2D6E3;}
	.st717{fill:#E2E6F1;}
	.st718{fill:#D9E3EC;}
	.st719{fill:#DCE2EE;}
	.st720{fill:#DCE4F4;}
	.st721{fill:#DEE5EF;}
	.st722{fill:#E0E3EF;}
	.st723{fill:#D9DFEC;}
	.st724{fill:#DEE1ED;}
	.st725{fill:#E3E9F4;}
	.st726{fill:#DCE3F1;}
	.st727{fill:#C9DBE3;}
	.st728{fill:#C2CDDA;}
	.st729{fill:#A7B1C0;}
	.st730{fill:#5A6372;}
	.st731{fill:#D7DDE8;}
	.st732{fill:#D8DEEA;}
	.st733{fill:#BBC7D5;}
	.st734{fill:#C9D0DD;}
	.st735{fill:#DFE5EF;}
	.st736{fill:#DAE1ED;}
	.st737{fill:#DEE1EF;}
	.st738{fill:#CDD7E1;}
	.st739{fill:#CED3E0;}
	.st740{fill:#E1E5F0;}
	.st741{fill:#DDE3EE;}
	.st742{fill:#E5ECF1;}
	.st743{fill:#D5D9E8;}
	.st744{fill:#CFD6E2;}
	.st745{fill:#D9DFEB;}
	.st746{fill:#BCBECF;}
	.st747{fill:#959AAB;}
	.st748{fill:#E3EAF3;}
	.st749{fill:#C7CCDC;}
	.st750{fill:#A0A6B5;}
	.st751{fill:#878D9C;}
	.st752{fill:#69727F;}
	.st753{fill:#5B606F;}
	.st754{fill:#DEE4F0;}
	.st755{fill:#DBE1EE;}
	.st756{fill:#D3D9E6;}
	.st757{fill:#E1E4EE;}
	.st758{fill:#DAE0EB;}
	.st759{fill:#D7DDE9;}
	.st760{fill:#DAE1EB;}
	.st761{fill:#DBE3EB;}
	.st762{fill:#E1E7F1;}
	.st763{fill:#DBE2ED;}
	.st764{fill:#E0E9F0;}
	.st765{fill:#DBE2EF;}
	.st766{fill:#DEE1EC;}
	.st767{fill:#E2E5EF;}
	.st768{fill:#E3EAF2;}
	.st769{fill:#EAEDF8;}
	.st770{fill:#E3E6F2;}
	.st771{fill:#D7D7E5;}
	.st772{fill:#D8DEEB;}
	.st773{fill:#CFD7E2;}
	.st774{fill:#B5C6E1;}
	.st775{fill:#3D435B;}
	.st776{fill:#384052;}
	.st777{fill:#30394D;}
	.st778{fill:#3B3D54;}
	.st779{fill:#DE8E89;}
	.st780{fill:#C57B6C;}
	.st781{fill:#94413A;}
	.st782{fill:#DCAA98;}
	.st783{fill:#ECA8A2;}
	.st784{fill:#E2A09D;}
	.st785{fill:#486686;}
	.st786{fill:#574C5B;}
	.st787{fill:#7085A7;}
	.st788{fill:#FACDC1;}
	.st789{fill:#F3B49B;}
	.st790{fill:#D3D6E1;}
	.st791{fill:#CBCFDA;}
	.st792{fill:#A5AFBA;}
	.st793{fill:#4A5464;}
	.st794{fill:#CBD0DD;}
	.st795{fill:#DADEE8;}
	.st796{fill:#BFC4D2;}
	.st797{fill:#E3E5F1;}
	.st798{fill:#BEC9D6;}
	.st799{fill:#D1D8E2;}
	.st800{fill:#DBE2EC;}
	.st801{fill:#C8D0DE;}
	.st802{fill:#D1D6E3;}
	.st803{fill:#DBE1EC;}
	.st804{fill:#F8B3A9;}
	.st805{fill:#E6A499;}
	.st806{fill:#EEA89D;}
</style>
<g id="Слой_1__x28_копия_x29_">
	<g>
		<polygon class="st5" points="234.8,245.9 245.3,260.9 246.2,241.7 		"/>
		<polygon class="st6" points="245.3,260.9 250.4,265.2 246.2,241.7 		"/>
		<polygon class="st7" points="234.8,245.9 244,242.5 231.1,232.6 		"/>
		<polyline class="st8" points="248.6,243.1 244.4,226.7 245.8,244.2 233.1,234.3 244.4,226.7 		"/>
		<polygon class="st9" points="241.7,226.2 240.5,202.7 231.5,215.5 		"/>
		<polygon class="st9" points="226.7,211.8 223.3,195.3 234.1,211.8 		"/>
		<polygon class="st10" points="234.1,211.8 231.5,215.5 226.7,211.8 		"/>
		<polygon class="st11" points="223.3,195.3 223.3,189.9 225.8,192.6 		"/>
		<polygon class="st12" points="225.8,192.6 234.1,198.9 234.1,211.8 		"/>
		<polygon class="st13" points="225.8,192.6 223.3,195.3 234.1,211.8 		"/>
		<polygon class="st14" points="240.5,202.7 234.1,198.9 234.1,211.8 		"/>
		<polygon class="st15" points="240.5,202.7 238.8,196.2 234.1,198.9 		"/>
		<polygon class="st16" points="238.6,195.3 228.7,187.2 234.1,198.9 		"/>
		<polygon class="st17" points="222.9,190.2 228.8,187.2 234.7,199.9 		"/>
		<polygon class="st9" points="238.6,195.3 245.3,203.6 244,195.3 		"/>
		<polygon class="st18" points="243.6,194.7 230.4,182.4 238.5,195.3 		"/>
		<polygon class="st19" points="228.7,187.2 231.5,184.1 238.6,195.3 		"/>
		<polygon class="st20" points="240.5,202.7 245.3,203.6 238.6,195.3 		"/>
		<polygon class="st21" points="240.3,222.2 241.7,226.2 231.5,215.5 		"/>
		<polygon class="st22" points="245.3,203.6 248.4,220.9 240.5,202.7 		"/>
		<polygon class="st23" points="241.7,226.2 248.4,220.9 240.5,202.7 		"/>
		<polygon class="st9" points="248.4,221.6 253.6,231.2 241.7,226.2 		"/>
		<polygon class="st24" points="250.4,265.2 253.6,231.2 241.7,226.2 		"/>
		<polygon class="st25" points="253.6,231.2 260.9,236.9 250.4,265.2 		"/>
		<polygon class="st26" points="260.9,236.9 276.2,240.6 250.4,265.2 		"/>
		<polygon class="st27" points="250.4,265.2 254.8,283.2 272.6,256.7 		"/>
		<polygon class="st28" points="272.6,256.7 276.2,240.6 251.1,265 		"/>
		<polygon class="st29" points="276.2,240.6 290.3,240.6 272.6,256.7 		"/>
		<polygon class="st30" points="272.6,256.7 294.1,257.6 290.3,240.6 		"/>
		<polyline class="st31" points="254.8,283.2 258.6,296.9 272.6,256.7 254.8,282.6 		"/>
		<polygon class="st32" points="272.6,256.7 277.6,299.2 258.6,296.9 		"/>
		<polygon class="st33" points="277.6,299.2 294.1,257.6 272.6,256.7 		"/>
		<polygon class="st34" points="290.3,240.6 300.4,238.1 294.1,257.6 		"/>
		<polygon class="st35" points="294.1,257.6 305.8,252.8 300.4,238.1 		"/>
		<polygon class="st9" points="300.4,238.1 310.9,230.2 306.6,244.2 		"/>
		<polygon class="st36" points="306.6,244.2 305.8,252.8 300.4,238.1 		"/>
		<polygon class="st9" points="310.9,230.2 315.7,224.3 315.1,236 		"/>
		<polygon class="st37" points="315.1,236 306.6,244.2 310.9,230.2 		"/>
		<polygon class="st9" points="305.8,252.8 310.8,258.3 314.6,248.6 		"/>
		<polygon class="st38" points="314.6,248.6 306.6,244.2 305.8,252.8 		"/>
		<polygon class="st39" points="315.1,236 314.6,248.6 306.6,244.2 		"/>
		<polygon class="st40" points="310.8,258.3 321.1,258.3 314.6,248.6 		"/>
		<polygon class="st41" points="314.6,247.8 322.2,247.8 317.8,253.4 314.6,248.6 		"/>
		<polygon class="st42" points="322.2,247.8 328.4,251.9 321.1,258.3 317.8,253.4 		"/>
		<polygon class="st43" points="322.2,247.8 315.1,236 314.6,247.8 		"/>
		<polygon class="st44" points="322.2,247.8 327.6,225.3 315.1,236 		"/>
		<polygon class="st45" points="315.7,223.5 323.1,229.1 315.1,236 		"/>
		<polygon class="st46" points="315.7,223.5 322.2,214.5 318.4,225.5 		"/>
		<polygon class="st47" points="322.2,214.5 327.6,225.3 323.1,229.1 318.4,225.5 		"/>
		<polygon class="st48" points="260.9,236.9 261.9,235.1 276.2,240.6 		"/>
		<polygon class="st49" points="261.9,235.1 255.7,229.4 253.6,231.2 260.9,236.9 		"/>
		<polygon class="st50" points="255.7,229.4 251.1,222.7 248.4,221.6 253.6,231.2 		"/>
		<polygon class="st51" points="248.4,220.9 248.4,221.6 241.7,226.2 		"/>
		<polygon class="st50" points="251.1,222.7 246.4,209.5 248.4,221.6 		"/>
		<polygon class="st52" points="249.3,217.6 247.6,205.1 246.4,209.5 		"/>
		<polygon class="st53" points="245.3,203.6 246.4,195.9 247.6,205.1 		"/>
		<polygon class="st54" points="245.3,203.6 247.6,205.1 246.4,209.5 		"/>
		<polygon class="st55" points="247.2,202.2 247.6,193.1 246.4,195.9 		"/>
		<polygon class="st56" points="244,195.3 246.4,195.9 245.3,203.6 		"/>
		<polygon class="st9" points="247.6,193.1 251.7,186.1 246.2,181.5 		"/>
		<polygon class="st57" points="243,194.8 244,195.3 238.6,195.3 		"/>
		<polygon class="st58" points="243,196.5 243.8,187.3 248.6,194.5 		"/>
		<polygon class="st59" points="243.6,187.8 247,188.1 247.6,193.1 		"/>
		<polygon class="st9" points="243.6,187.8 241.3,184.6 241.3,187.6 		"/>
		<polygon class="st60" points="241.3,184.6 247,188.1 243.6,187.8 		"/>
		<polygon class="st61" points="241.3,184.6 246.5,184.6 247,188.1 		"/>
		<polygon class="st62" points="243,196.4 248.6,194.2 247.1,197.8 237.6,191.2 240.9,187.3 243.8,187.6 		"/>
		<polygon class="st9" points="237.3,189.2 237.6,179.8 241.3,187.6 		"/>
		<polygon class="st63" points="237.3,189.2 238.6,190.7 241.3,187.6 		"/>
		<polygon class="st64" points="241.3,184.6 237.6,179.8 241.3,187.6 		"/>
		<polygon class="st65" points="237.6,179.8 246.2,181.5 241.3,184.6 		"/>
		<polygon class="st66" points="241.7,184.5 246.5,184.6 246.2,181.5 241.3,184.6 		"/>
		<polygon class="st67" points="237.6,179.8 246.2,179.8 246.2,181.5 		"/>
		<polygon class="st68" points="246.2,179.8 251.7,186.1 246.2,181.5 		"/>
		<polygon class="st69" points="246.2,179.8 255.4,179.8 251.7,186.1 		"/>
		<polygon class="st70" points="251.7,186.1 256,182.9 255.4,179.8 		"/>
		<polygon class="st9" points="256,182.9 262.6,181.5 255.4,179.8 		"/>
		<polygon class="st71" points="255.4,179.8 264.8,179.8 262.6,181.5 		"/>
		<polygon class="st72" points="262.6,181.5 270.5,181.4 264.8,179.8 		"/>
		<polygon class="st73" points="264.8,179.8 284.3,179.8 270.5,181.4 		"/>
		<polygon class="st74" points="270.5,181.4 284.3,181.5 284.3,179.8 		"/>
		<polygon class="st75" points="284.3,181.5 298.8,181.5 284.3,179.8 		"/>
		<polygon class="st76" points="284.3,179.8 298.8,179.8 298.8,181.5 		"/>
		<polygon class="st9" points="298.8,181.5 306.6,185.1 306.6,179.8 		"/>
		<polygon class="st77" points="298.8,181.5 298.8,179.8 306.6,179.8 		"/>
		<polygon class="st9" points="306.6,185.1 313.3,188.6 314,184.5 		"/>
		<polygon class="st78" points="314,184.5 306.6,182.2 306.6,185.1 		"/>
		<polygon class="st79" points="306.6,179.8 314,184.5 306.6,182.2 		"/>
		<polygon class="st9" points="313.3,188.6 317.7,194.5 318.9,188.6 		"/>
		<polygon class="st80" points="318.9,188.6 314,184.5 313.3,188.6 		"/>
		<polygon class="st81" points="318.9,188.6 322.2,195.3 317.7,194.5 		"/>
		<polygon class="st82" points="322.2,195.3 322.2,210 317.7,194.5 		"/>
		<polygon class="st83" points="317.7,194.5 317.4,211.4 322.2,210 		"/>
		<polygon class="st84" points="322.2,210 322.2,214.5 317.4,211.4 		"/>
		<polygon class="st85" points="317.4,211.5 315.7,223.5 322.2,214.5 		"/>
		<polygon class="st86" points="316.4,218.2 313.7,222.7 315.7,223.5 		"/>
		<path class="st87" d="M316.2,222.9l0,0.9l-2.3-1.5V222c0,0-3,7.8-3,8"/>
		<polygon class="st88" points="305,232.8 297.6,236.9 300.4,238.1 		"/>
		<polygon class="st89" points="290.3,240.6 297.6,236.9 300.4,238.1 		"/>
		<polygon class="st90" points="276.2,240.4 279,239.7 284.2,240.6 		"/>
		<polygon class="st91" points="279,239.7 287.3,239.7 284.2,240.6 		"/>
		<polygon class="st92" points="287.3,239.7 290.3,240.6 284.2,240.6 		"/>
		<polygon class="st93" points="287.3,239.7 292.2,239.7 290.3,240.6 		"/>
		<polygon class="st94" points="274.2,239.8 279,239.7 276.2,240.4 		"/>
		<path class="st95" d="M228.7,187.2c-0.4,0.2-2.9,0-2.9,0v-20.3L228.7,187.2z"/>
		<polygon class="st96" points="225.8,166.9 231.5,184.1 228.7,187.2 		"/>
		<polygon class="st97" points="225.8,166.9 231.5,184.1 231.5,161.1 		"/>
		<polygon class="st98" points="225.8,166.9 224.6,148.1 231.5,161.1 		"/>
		<polygon class="st99" points="231.5,161.1 246.2,124.6 224.6,148.1 		"/>
		<polygon class="st100" points="231.5,175.9 250.3,147.7 231.5,161.1 		"/>
		<polygon class="st99" points="250.3,147.7 246.2,124.6 231.5,161.1 		"/>
		<polygon class="st101" points="224.6,148.1 227.4,104.9 246.2,124.6 		"/>
		<polygon class="st102" points="246.2,124.6 264.1,83.3 227.4,104.9 		"/>
		<polygon class="st103" points="250.3,147.7 276.3,100 246.2,124.6 		"/>
		<polygon class="st102" points="276.3,100 264.1,83.3 246.2,124.6 		"/>
		<polygon class="st103" points="250.3,147.7 274.2,129.9 276.3,100 		"/>
		<polygon class="st104" points="227.4,104.9 235.4,83.6 253.9,89.3 		"/>
		<polygon class="st105" points="235.4,83.6 235.4,61.9 253.9,89.3 		"/>
		<polygon class="st102" points="235.4,61.9 264.1,83.3 253.9,89.3 		"/>
		<polygon class="st106" points="276.3,100 293.3,125 274.2,129.9 		"/>
		<polygon class="st107" points="276.3,100 292.4,98.2 293.3,125 		"/>
		<path class="st108" d="M292.4,98.2c-0.3-1,0-16.3,0-16.3L276.3,100L292.4,98.2z"/>
		<polygon class="st109" points="292.4,81.9 264.1,83.3 276.3,100 		"/>
		<polygon class="st103" points="235.4,61.9 241.6,47.1 264.1,83.3 		"/>
		<polygon class="st104" points="241.6,47.1 253.9,36 264.1,83.3 		"/>
		<polygon class="st102" points="264.1,83.3 275.4,48.1 292.4,81.9 		"/>
		<polygon class="st102" points="253.9,36 275.4,48.1 264.1,83.3 		"/>
		<polygon class="st99" points="292.4,81.9 301.2,51.4 275.4,48.1 		"/>
		<polygon class="st110" points="253.9,36 273.8,25.6 275.4,48.1 		"/>
		<polygon class="st103" points="273.8,25.6 301.2,51.4 275.4,48.1 		"/>
		<polygon class="st111" points="273.8,25.6 285,16.6 301.2,51.4 		"/>
		<polygon class="st109" points="301.2,51.4 308.5,33.2 285,16.6 		"/>
		<polygon class="st104" points="308.5,33.2 307.7,10.6 285,16.6 		"/>
		<polygon class="st101" points="307.7,10.6 334.6,10.6 308.5,33.2 		"/>
		<polygon class="st99" points="308.5,33.2 320.1,30.1 334.6,10.6 		"/>
		<polygon class="st112" points="334.6,10.6 331.8,30.9 320.1,30.1 		"/>
		<polygon class="st113" points="331.8,30.9 342.2,33.2 334.6,10.6 		"/>
		<polygon class="st114" points="334.6,10.6 358.6,11.4 342.2,33.2 		"/>
		<polygon class="st115" points="342.2,33.2 350.1,41.9 358.6,11.4 		"/>
		<polygon class="st116" points="358.6,11.4 378.3,17.2 350.1,41.9 		"/>
		<polygon class="st117" points="378.3,17.2 382.1,19.8 366,28 		"/>
		<path class="st118" d="M349.6,42.1c0,0,2.7,5.4,2.7,5.4s13.8-19.8,13.8-19.8L349.6,42.1z"/>
		<polygon class="st119" points="366,27.3 383.8,59.4 352.3,47.2 		"/>
		<polygon class="st120" points="382.1,19.8 383.1,58.8 366,28 		"/>
		<polygon class="st121" points="382.1,19.8 402.8,33.2 383.1,58.8 		"/>
		<polygon class="st122" points="352.7,47.1 353.9,65.7 383.1,58.8 		"/>
		<polygon class="st123" points="353.9,65.7 358,83.3 383.1,58.8 		"/>
		<path class="st124" d="M358,83.3c0.1,0.8,1.2,9.2,1.2,9.2l23.9-33.6L358,83.3z"/>
		<polygon class="st125" points="383.1,58.8 381.2,92.4 359.2,92.4 		"/>
		<polygon class="st126" points="402.8,33.2 413.1,39.3 383.1,58.8 		"/>
		<polygon class="st127" points="383.1,58.8 421.7,55.4 413.1,39.3 		"/>
		<polygon class="st120" points="381.2,92.4 421.7,55.4 383.1,58.8 		"/>
		<polygon class="st128" points="421.7,55.4 424.8,63.8 410.5,65.7 		"/>
		<polygon class="st9" points="410.5,65.7 409.7,92.4 381.2,92.4 		"/>
		<polygon class="st9" points="369.4,92.4 376.8,97.7 381.2,92.4 		"/>
		<path class="st129" d="M376.8,97.7c0.3,0.9,2.6,5.5,2.6,5.5l1.8-10.8L376.8,97.7z"/>
		<polygon class="st9" points="379.4,103.2 379.4,108.2 394.8,100 		"/>
		<polygon class="st130" points="394.8,100 381.2,92.4 379.4,103.2 		"/>
		<polygon class="st131" points="394.8,100 409.7,92.4 381.2,92.4 		"/>
		<path class="st132" d="M424.8,63.8c-0.3,0.8,1.6,11.8,1.6,11.8l-16-9.9L424.8,63.8z"/>
		<polygon class="st133" points="426.4,75.6 427.3,83.3 410.5,65.7 		"/>
		<polygon class="st134" points="409.7,92.4 427.3,83.3 410.5,65.7 		"/>
		<polygon class="st135" points="427.3,83.3 429.2,89.9 409.7,92.4 		"/>
		<polygon class="st120" points="394.4,100.1 392.2,131.6 411,91.8 		"/>
		<polygon class="st136" points="429.2,89.9 434.1,105.6 409.7,92.4 		"/>
		<polygon class="st137" points="392.2,131.6 434.6,105.6 409.8,92.4 		"/>
		<polygon class="st138" points="434.1,104.9 438.1,121.2 392.2,131.6 		"/>
		<polygon class="st139" points="379.4,108.2 376.1,114.7 394.4,100.6 		"/>
		<polygon class="st140" points="376.1,114.7 392.4,131.6 394.4,100.6 		"/>
		<polygon class="st141" points="376.1,114.7 370.5,118.6 392.4,131.6 		"/>
		<polygon class="st9" points="370.5,118.6 362.6,119.2 370.5,124.4 		"/>
		<polygon class="st142" points="362.6,119.2 360.9,122.3 370.5,124.4 		"/>
		<polygon class="st143" points="370.5,124.4 392.4,131.6 370.5,118.6 		"/>
		<polygon class="st119" points="392.4,131.3 402.8,138.6 417.1,125.4 		"/>
		<polygon class="st129" points="402.3,137.9 412.4,145.2 416,126.4 		"/>
		<polygon class="st144" points="412.4,145.2 421.9,155.1 416,126.4 		"/>
		<polygon class="st145" points="439.9,120.6 421.8,155.3 415.1,125.7 		"/>
		<polygon class="st146" points="421.9,155.1 429.2,167.2 438.1,121.4 		"/>
		<polygon class="st147" points="438.1,121.4 440.1,158.9 429.2,167.2 		"/>
		<path class="st148" d="M429.2,167.2c0,0.9,3,20.1,3,20.1l7.9-28.4L429.2,167.2z"/>
		<polygon class="st149" points="432.2,187.3 438.9,182.3 440.1,158.9 		"/>
		<polygon class="st150" points="292.4,98.2 315.2,96.2 292.8,108.2 		"/>
		<polygon class="st151" points="293.3,125 302.7,102.9 292.8,108.2 		"/>
		<polygon class="st152" points="302.7,102.9 305.9,107.6 300.5,108.2 		"/>
		<polygon class="st153" points="305.9,107.6 305.3,112.9 300.5,108.2 		"/>
		<polygon class="st154" points="300.5,108.2 305.3,112.9 293.3,125 		"/>
		<polygon class="st155" points="293.3,125 307.4,121.9 305.3,112.9 		"/>
		<polygon class="st156" points="305.3,112.9 312.1,110.3 305.9,107.6 		"/>
		<polygon class="st157" points="312.1,110.3 315.2,96.2 305.9,107.6 		"/>
		<polygon class="st158" points="305.9,107.6 302.7,102.9 315.2,96.2 		"/>
		<polygon class="st159" points="313.1,105.6 318.3,106.2 317.4,111.6 314.4,112 312.1,110.3 		"/>
		<polygon class="st160" points="318.3,106.2 315.2,96.2 313.1,105.6 		"/>
		<polygon class="st161" points="323.1,107.1 324.2,110.3 326.9,110.8 330.2,107.6 327.7,104.9 324.9,105.5 		"/>
		<polygon class="st162" points="324.2,110.3 317.4,111.6 323.1,107.1 		"/>
		<polygon class="st163" points="326.9,110.8 321.3,121.4 317.4,111.6 324.2,110.3 		"/>
		<polygon class="st164" points="330.2,107.6 335.6,121.4 321.3,121.4 326.9,110.8 		"/>
		<polygon class="st165" points="330.2,107.6 334.7,95.1 324.2,102.2 324.9,105.5 327.7,104.9 		"/>
		<polygon class="st166" points="330.2,107.6 346.2,95.1 334.7,95.1 		"/>
		<polygon class="st9" points="335.8,103.2 335.8,108.5 340.4,110.3 342.2,104.9 		"/>
		<polygon class="st167" points="340.9,110.3 335.3,121.9 335.4,108.6 		"/>
		<polygon class="st168" points="335.8,103.2 335.6,121.4 330.2,107.6 		"/>
		<polygon class="st169" points="342.2,104.9 346.2,95.1 335.8,103.2 		"/>
		<polygon class="st170" points="342.2,104.9 350.1,121.4 335.6,121.4 		"/>
		<polygon class="st9" points="342.2,104.9 347.8,101.9 346.2,108.5 		"/>
		<polygon class="st171" points="346.2,108.5 360.9,122.3 350.1,121.4 342.2,104.9 		"/>
		<polygon class="st172" points="347.8,101.9 351.6,103.2 353.2,106.2 351.6,109.3 348.7,110.8 346.2,108.5 		"/>
		<polygon class="st173" points="347.8,101.9 346.2,95.1 342.2,104.9 		"/>
		<polygon class="st174" points="347.8,101.9 359.2,92.4 346.2,95.1 		"/>
		<polygon class="st175" points="351.6,103.2 359.2,92.4 347.8,101.9 		"/>
		<polygon class="st176" points="353.2,105.6 363.7,119.9 348.1,110.7 351.4,109 		"/>
		<polygon class="st177" points="348.7,110.8 360.9,122.3 362.6,119.2 		"/>
		<polygon class="st178" points="362.6,118.6 361.8,108.2 353.2,106.2 		"/>
		<polygon class="st179" points="361.8,108.2 370.5,118.6 362.6,119.2 		"/>
		<polygon class="st180" points="361.8,108.2 364.2,104.1 361.8,101.2 358.6,103.3 358.6,107.4 		"/>
		<polygon class="st181" points="358.6,103.3 351.6,103.2 353.2,106.2 358.6,107.4 		"/>
		<polygon class="st182" points="358.6,103.3 359.2,92.4 351.6,103.2 		"/>
		<polygon class="st183" points="361.8,101.2 359.2,92.4 358.6,103.3 		"/>
		<polygon class="st184" points="361.8,101.2 369.4,92.4 359.2,92.4 		"/>
		<polygon class="st185" points="364.2,104.1 369.4,92.4 361.8,101.2 		"/>
		<polygon class="st186" points="364.2,104.1 370.5,118.6 361.8,108.2 		"/>
		<polygon class="st187" points="364.2,104.1 376.1,114.7 370.5,118.6 		"/>
		<polygon class="st188" points="369.4,108.8 369.4,92.4 364.2,104.1 		"/>
		<polygon class="st189" points="369.4,102.9 373.1,101.2 374.5,105.6 371.1,107.9 369.4,106.4 		"/>
		<polygon class="st190" points="371.1,107.9 376.1,114.7 369.4,108.8 369.4,106.4 		"/>
		<polygon class="st191" points="374.5,105.6 376.1,114.7 371.1,107.9 		"/>
		<polygon class="st191" points="374.5,105.6 379.4,103.2 379.4,108.2 376.1,114.7 		"/>
		<polygon class="st192" points="373.1,101.2 369.4,92.4 369.4,102.9 		"/>
		<polygon class="st193" points="373.1,101.2 376.8,97.7 369.4,92.4 		"/>
		<polygon class="st194" points="373.1,101.2 374.5,105.6 379.4,103.2 376.8,97.7 		"/>
		<path class="st195" d="M292.4,98.2c0.4,0,4.9-16.3,4.9-16.3h-4.9V98.2z"/>
		<polygon class="st9" points="297.4,81.9 309.9,78.7 295.2,72.5 		"/>
		<polygon class="st196" points="297.4,81.9 292.4,81.9 295.2,72.5 		"/>
		<polygon class="st197" points="293.8,94.3 308.3,96.8 292.4,98.2 		"/>
		<polygon class="st198" points="297.4,81.9 307.9,90.4 293.8,94.3 		"/>
		<polygon class="st199" points="307.9,90.4 308.3,96.8 293.8,94.3 		"/>
		<polygon class="st200" points="307.9,90.4 309.9,78.7 297.4,81.9 		"/>
		<polygon class="st201" points="307.9,90.4 319.6,86.9 308.3,96.8 		"/>
		<polygon class="st202" points="319.6,86.9 320,95.9 308.3,96.8 		"/>
		<polygon class="st203" points="319.6,86.9 334.7,95.1 320,95.9 		"/>
		<polygon class="st204" points="319.6,86.9 328.4,86.9 334.7,95.1 		"/>
		<polygon class="st205" points="328.4,86.9 343.9,85.7 334.7,95.1 		"/>
		<polygon class="st206" points="343.9,85.7 351.6,94 346.2,95.1 334.7,95.1 		"/>
		<polygon class="st207" points="343.9,85.7 359.2,92.4 351.6,94 		"/>
		<polygon class="st201" points="343.9,85.7 358,83.3 359.2,92.4 		"/>
		<polygon class="st208" points="309.9,78.7 319.6,86.9 307.9,90.4 		"/>
		<polygon class="st209" points="309.9,78.7 318.9,61.9 295.2,72.5 		"/>
		<polygon class="st210" points="318.9,61.9 305.5,54.9 295.2,72.5 		"/>
		<polygon class="st211" points="305.5,54.9 301.2,51.4 295.2,72.5 		"/>
		<polygon class="st212" points="305.5,54.9 317.9,41.9 301.2,51.4 		"/>
		<polygon class="st213" points="308.5,33.2 317.9,41.9 301.2,51.4 		"/>
		<polygon class="st214" points="317.9,41.9 329.9,40.1 308.5,33.2 		"/>
		<polygon class="st215" points="320.1,30.1 329.9,40.1 308.5,33.2 		"/>
		<polygon class="st216" points="329.9,40.1 339.1,40.5 320.1,30.1 		"/>
		<polygon class="st217" points="339.1,40.5 331.8,30.9 320.1,30.1 		"/>
		<polygon class="st218" points="342.2,33.2 339.1,40.5 331.8,30.9 		"/>
		<polygon class="st219" points="339.1,40.5 350.1,41.9 342.2,33.2 		"/>
		<polygon class="st220" points="339.1,40.5 352.7,47.1 350.1,41.9 		"/>
		<polygon class="st221" points="318.9,61.9 317.9,41.9 305.5,54.9 		"/>
		<polygon class="st222" points="318.9,61.9 329.9,40.1 317.9,41.9 		"/>
		<polygon class="st223" points="318.9,61.9 340.9,57.8 329.9,40.1 		"/>
		<polygon class="st224" points="340.9,57.8 352.7,47.1 339.1,40.5 		"/>
		<polygon class="st225" points="340.9,57.8 339.1,40.5 329.9,40.1 		"/>
		<polygon class="st226" points="340.9,57.8 353.9,65.7 352.7,47.1 		"/>
		<polygon class="st227" points="319.6,86.9 325.6,69.8 309.9,78.7 		"/>
		<polygon class="st228" points="325.6,69.8 318.9,61.9 309.9,78.7 		"/>
		<polygon class="st210" points="325.6,69.8 340.9,57.8 318.9,61.9 		"/>
		<polygon class="st223" points="325.6,69.8 342.2,71.8 322.8,77.8 		"/>
		<polygon class="st229" points="319.6,86.9 328.4,86.9 322.8,77.8 		"/>
		<polygon class="st230" points="328.4,86.9 342.2,71.8 322.8,77.8 		"/>
		<polygon class="st231" points="343.9,85.7 337.3,77.2 328.4,86.9 		"/>
		<polygon class="st232" points="337.3,77.2 345.9,77.8 343.9,85.7 		"/>
		<polygon class="st233" points="345.9,77.8 353.9,84 343.9,85.7 		"/>
		<polygon class="st234" points="345.9,77.8 355.9,73.9 353.9,84 		"/>
		<polygon class="st235" points="353.9,84 358,83.3 355.9,73.9 		"/>
		<polygon class="st236" points="342.2,71.8 345.9,77.8 337.3,77.2 		"/>
		<polygon class="st237" points="342.2,71.8 355.9,73.9 345.9,77.8 		"/>
		<polygon class="st238" points="342.2,71.8 340.9,57.8 325.6,69.8 		"/>
		<polygon class="st239" points="342.2,71.8 353.9,65.7 340.9,57.8 		"/>
		<polygon class="st240" points="342.2,71.8 355.9,73.9 353.9,65.7 		"/>
		<polygon class="st241" points="237.6,179.8 231.5,184.1 237.3,189.2 		"/>
		<polygon class="st242" points="237.6,179.8 231.5,179.8 231.5,184.1 		"/>
		<polygon class="st243" points="237.6,179.8 231.5,175.9 231.5,179.8 		"/>
		<polygon class="st244" points="237.6,179.8 241.9,160.3 231.5,175.9 		"/>
		<polygon class="st245" points="241.9,160.3 246.2,179.8 237.6,179.8 		"/>
		<polygon class="st246" points="246.2,179.8 255.4,179.8 241.9,160.3 		"/>
		<polygon class="st9" points="255.4,179.8 253.6,177.1 262.6,171.5 		"/>
		<polygon class="st247" points="262.6,171.5 264.8,179.8 255.4,179.8 		"/>
		<polygon class="st248" points="254,177.8 257.1,177.8 255.4,179.8 		"/>
		<polygon class="st9" points="257.1,177.8 264.3,177.8 264.8,179.8 255.4,179.8 		"/>
		<polygon class="st249" points="264.3,177.8 284.3,179.8 264.8,179.8 		"/>
		<polygon class="st250" points="264.3,177.8 284.5,177.8 284.3,179.8 		"/>
		<polygon class="st9" points="284.5,177.8 306.6,177.8 306.6,179.8 		"/>
		<polygon class="st230" points="284.5,177.8 284.3,179.8 306.6,179.8 		"/>
		<polygon class="st9" points="306.6,177.8 314.7,179.1 314,184.5 		"/>
		<polygon class="st251" points="306.6,177.8 306.6,179.8 314,184.5 		"/>
		<polygon class="st252" points="314.7,179.1 321.3,183.2 314,184.5 		"/>
		<polygon class="st253" points="321.3,183.2 318.9,188.6 314,184.5 		"/>
		<polygon class="st254" points="321.3,183.2 324.9,193.2 318.9,188.6 		"/>
		<polygon class="st255" points="324.9,193.2 325.4,200.1 322.2,195.3 318.9,188.6 		"/>
		<polygon class="st256" points="325.4,200.1 322.2,214.5 322.2,195.3 		"/>
		<polygon class="st257" points="325.4,200.4 330.3,197.8 325.4,197.8 		"/>
		<polygon class="st9" points="330.3,197.8 338.3,197.8 341.6,189.9 		"/>
		<polygon class="st258" points="324.9,193.2 325.4,197.8 330.3,197.8 		"/>
		<polygon class="st259" points="324.9,193.2 341.6,189.9 330.3,197.8 		"/>
		<polygon class="st260" points="321.3,183.2 341.7,183.7 325,193.5 		"/>
		<polygon class="st261" points="340.9,183.6 341.6,189.9 325.4,193.1 		"/>
		<polygon class="st262" points="340.9,183.6 346.8,182.9 341.6,189.9 		"/>
		<polygon class="st263" points="341.6,189.9 342.7,191.6 346.8,182.9 		"/>
		<polygon class="st264" points="342.7,191.6 338.3,197.8 341.6,189.9 		"/>
		<polygon class="st265" points="338.3,197.8 338.8,203.6 342.7,191.6 		"/>
		<polygon class="st266" points="341.9,193.9 340.9,210.4 338.8,203.6 		"/>
		<polygon class="st267" points="341.4,203.6 344.2,213.1 341.9,215.3 340.9,210.4 		"/>
		<polygon class="st268" points="341.9,215.3 346.6,222.9 344.2,213.1 		"/>
		<polygon class="st269" points="344.2,213.1 348.6,222.7 346.6,222.9 		"/>
		<polygon class="st270" points="346.6,222.9 351,226.1 348.6,222.7 		"/>
		<polygon class="st271" points="344.3,188.4 351,183.6 346.8,182.9 		"/>
		<polygon class="st9" points="351,183.6 360.3,181.1 357.4,177.8 		"/>
		<polygon class="st272" points="346.8,182.9 357.4,177.8 351,183.6 		"/>
		<polygon class="st273" points="357.4,177.8 371.2,176.4 360.3,181.1 		"/>
		<polygon class="st274" points="360.3,181.1 376.2,179.1 371.2,176.4 		"/>
		<polygon class="st275" points="371.2,176.4 389.9,175.6 376.2,179.1 		"/>
		<polygon class="st276" points="376.2,179.1 394.6,177.8 389.9,175.6 		"/>
		<polygon class="st277" points="389.9,175.6 401.8,175.6 394.6,177.8 		"/>
		<polygon class="st278" points="394.6,177.8 407.4,178.8 401.8,175.6 		"/>
		<polygon class="st279" points="401.8,175.6 411.1,176.7 407.4,178.8 		"/>
		<polygon class="st280" points="407.4,178.8 416,182.9 411.1,176.7 		"/>
		<polygon class="st281" points="411.1,176.7 418.8,180.7 416,182.9 		"/>
		<polygon class="st282" points="411.1,176.7 411.1,174.4 401.8,175.6 		"/>
		<polygon class="st283" points="411.1,174.4 423.2,174.4 411.1,176.7 		"/>
		<polygon class="st284" points="423.2,174.4 418.8,180.7 411.1,176.7 		"/>
		<polygon class="st285" points="418.8,180.7 423.2,183.2 423.2,174.4 		"/>
		<polygon class="st286" points="423.2,174.4 427.6,177.8 423.2,183.2 		"/>
		<polygon class="st287" points="427.6,177.8 427.6,189.1 423.2,183.2 		"/>
		<polygon class="st288" points="423.2,183.2 419.4,189.1 427.6,189.1 		"/>
		<polygon class="st289" points="419.4,189.1 419.4,196.2 427.6,189.1 		"/>
		<polygon class="st290" points="416,182.9 423.2,183.2 418.8,180.7 		"/>
		<polygon class="st291" points="416,182.9 419.4,189.1 423.2,183.2 		"/>
		<polygon class="st292" points="411.7,181.1 414.8,187.6 416,183 		"/>
		<polygon class="st293" points="414.9,187.3 419.4,189.1 416,182.9 		"/>
		<polygon class="st294" points="414.5,186.8 416.3,192.5 420,188.9 		"/>
		<polygon class="st294" points="416.4,192 419.4,196.2 419.4,189.1 		"/>
		<polygon class="st295" points="416.4,192 416.4,203.6 419.4,196.2 		"/>
		<polygon class="st296" points="419.4,196.2 417.9,204.9 416.4,203.6 		"/>
		<polygon class="st297" points="416.4,203.6 414.9,215.3 417.9,204.9 		"/>
		<polygon class="st298" points="417.9,204.9 416,220 414.9,215.3 		"/>
		<polygon class="st299" points="414.9,215.3 411.2,224.4 416,220 		"/>
		<polygon class="st300" points="416,220 410.3,227.9 411.2,224.4 		"/>
		<polygon class="st301" points="411.2,224.4 403.9,231.6 410.3,227.9 		"/>
		<polygon class="st9" points="403.9,231.6 394.5,236.9 395.1,234.3 		"/>
		<polygon class="st302" points="395.1,234.3 385.1,236.6 394.5,236.9 		"/>
		<polygon class="st303" points="394.5,236.9 384.5,237.9 385.1,236.6 		"/>
		<polygon class="st304" points="384.5,237.9 374.6,238.4 385.1,236.6 		"/>
		<polygon class="st305" points="385.1,236.6 373.9,236 374.6,238.4 		"/>
		<polygon class="st306" points="373.9,236 367.3,235.6 374.6,238.4 		"/>
		<polygon class="st307" points="374.6,238.4 367.3,237.5 367.3,235.6 		"/>
		<polygon class="st308" points="348.6,222.7 354.1,225.3 351,226.1 		"/>
		<polygon class="st309" points="351,226.1 354.1,229.1 354.1,225.3 		"/>
		<polygon class="st310" points="354.1,225.3 358.4,230.8 354.1,229.1 		"/>
		<polygon class="st311" points="354.1,229.1 361.9,235.4 358.4,230.8 		"/>
		<polygon class="st312" points="358.4,230.8 367.3,235.6 361.9,235.4 		"/>
		<polygon class="st313" points="361.9,235.4 367.3,237.5 367.3,235.6 		"/>
		<polyline class="st314" points="327.6,225.3 327.6,225.3 322.2,214.5 335.1,207.1 327.6,225.3 		"/>
		<polygon class="st315" points="327.6,225.3 335.1,235.4 324.5,238.1 		"/>
		<polygon class="st316" points="322.2,247.8 329.8,245.1 324.5,238.1 		"/>
		<polygon class="st317" points="329.8,245.1 335.1,235.4 324.5,238.1 		"/>
		<polygon class="st318" points="335.1,235.4 338.6,244.8 329.8,245.1 		"/>
		<polygon class="st319" points="338.6,244.8 328.4,251.9 329.8,245.1 		"/>
		<polygon class="st320" points="329.8,245.1 328.4,251.9 322.2,247.8 		"/>
		<polygon class="st321" points="328.4,251.9 333.9,256.9 321.1,258.3 		"/>
		<polygon class="st322" points="338.6,244.8 333.9,256.9 328.4,251.9 		"/>
		<polygon class="st323" points="338.6,244.8 343.6,248.6 336.4,250.6 		"/>
		<polygon class="st9" points="343.6,248.6 346.4,251.5 340.9,252.8 		"/>
		<polygon class="st324" points="340.9,252.8 336.4,250.6 343.6,248.6 		"/>
		<polygon class="st325" points="336.4,250.6 333.9,256.9 340.9,252.8 		"/>
		<polygon class="st326" points="340.9,252.8 346.6,257.6 333.9,256.9 		"/>
		<path class="st327" d="M346.4,251.5c0,0.3,0.2,6.1,0.2,6.1l-5.8-4.8L346.4,251.5z"/>
		<polygon class="st9" points="346.4,251.5 356,240.3 354.1,256.6 		"/>
		<polygon class="st328" points="354.1,256.6 346.6,257.6 346.4,251.5 		"/>
		<polygon class="st329" points="356,240.3 358.4,249.8 354.1,256.6 		"/>
		<polygon class="st330" points="356,240.3 348.8,239.1 346.4,251.5 		"/>
		<polygon class="st331" points="348.8,239.1 338.6,244.8 343.6,248.6 346.4,251.5 		"/>
		<polygon class="st332" points="348.8,239.1 335.1,235.4 338.6,244.8 		"/>
		<polygon class="st333" points="335.1,207.1 325.4,200.4 322.2,214.5 		"/>
		<polygon class="st334" points="335.1,207.1 330.3,197.8 325.4,200.4 		"/>
		<polygon class="st335" points="335.1,207.1 338.3,197.8 330.3,197.8 		"/>
		<polygon class="st336" points="335.1,207.1 338.8,203.6 338.3,197.8 		"/>
		<polygon class="st337" points="327.6,225.3 340.9,223.8 335.1,207.1 		"/>
		<polygon class="st338" points="340.9,223.8 335.1,235.4 327.6,225.3 		"/>
		<polygon class="st339" points="338.8,203.6 340.9,223.8 335.1,207.1 		"/>
		<polygon class="st340" points="341.9,215.3 340.9,223.8 338.8,203.6 340.9,210.4 		"/>
		<polygon class="st341" points="346.6,222.9 340.9,223.8 341.9,215.3 		"/>
		<polygon class="st342" points="340.9,223.8 348.8,239.1 335.1,235.4 		"/>
		<polygon class="st343" points="348.8,239.1 351,226.1 346.6,222.9 340.9,223.8 		"/>
		<polygon class="st344" points="351,226.1 356,240.3 348.8,239.1 		"/>
		<polygon class="st345" points="356,240.3 358.4,232.5 351,226.1 		"/>
		<polygon class="st346" points="262.6,171.5 274.4,162.9 264.8,179.8 		"/>
		<polygon class="st347" points="274.4,162.9 273.4,177.8 265.8,178 		"/>
		<polygon class="st9" points="274.4,162.9 284.5,177.8 273.4,177.8 		"/>
		<polygon class="st348" points="273.8,172.6 278.8,169.5 274.4,162.9 		"/>
		<polygon class="st349" points="278.8,169.5 284.5,177.8 273.4,177.8 273.8,172.6 		"/>
		<polygon class="st350" points="278.8,169.5 288.6,162.9 274.4,162.9 		"/>
		<polygon class="st351" points="288.6,162.9 284.5,177.8 278.8,169.5 		"/>
		<polygon class="st352" points="288.6,162.9 299.6,167.4 286.5,170.5 		"/>
		<polygon class="st353" points="299.6,167.4 284.5,177.8 286.5,170.5 		"/>
		<polygon class="st354" points="299.6,167.4 299.9,177.8 284.5,177.8 		"/>
		<polygon class="st355" points="299.6,167.4 304.6,163.8 288.6,162.9 		"/>
		<polygon class="st356" points="304.6,163.8 309.8,173.1 299.6,167.4 		"/>
		<polygon class="st357" points="309.8,173.1 299.9,177.8 299.6,167.4 		"/>
		<polygon class="st358" points="309.8,173.1 314.7,179.1 306.6,177.8 299.9,177.8 		"/>
		<polygon class="st359" points="309.8,173.1 315.1,173.1 314.7,179.1 		"/>
		<polygon class="st360" points="315.1,173.1 321.3,183.2 314.7,179.1 		"/>
		<polygon class="st361" points="315.1,173.1 325.4,173.9 321.3,183.2 		"/>
		<polygon class="st362" points="325.4,173.9 340.9,183.6 321.3,183.2 		"/>
		<polygon class="st363" points="325.4,173.9 346.1,173.6 337,181.1 		"/>
		<polygon class="st364" points="346.1,173.6 338.8,182.1 337,181.1 		"/>
		<polygon class="st365" points="346.1,173.6 348,177.4 338.8,182.1 		"/>
		<polygon class="st272" points="348,177.4 346.8,182.9 340.9,183.6 338.8,182.1 		"/>
		<polygon class="st366" points="348,177.4 357.4,177.8 346.8,182.9 		"/>
		<polygon class="st367" points="346.1,173.6 348.8,165.2 348,177.4 		"/>
		<polygon class="st368" points="348.8,165.2 361.9,158.9 348,177.4 		"/>
		<polygon class="st9" points="361.9,158.9 390.8,160.3 371.2,164.6 		"/>
		<polygon class="st369" points="361.9,158.9 371.2,164.6 382.8,175.9 371.2,176.4 357.4,177.8 		"/>
		<polygon class="st370" points="357.4,177.8 348,177.4 361.9,158.9 		"/>
		<polygon class="st371" points="382.8,175.9 390.8,160.3 371.2,164.6 		"/>
		<polygon class="st372" points="390.8,160.3 404.2,175.3 401.8,175.6 389.9,175.6 382.8,175.9 		"/>
		<polygon class="st373" points="427.6,177.8 430.1,173.9 427.6,189.1 		"/>
		<polygon class="st374" points="427.6,189.1 432.2,187.3 430.1,173.9 		"/>
		<polygon class="st375" points="423.2,174.4 421.9,155.1 429.2,167.2 430.1,173.9 427.6,177.8 		"/>
		<polygon class="st376" points="404.2,175.3 421.9,155.1 423.2,174.4 411.1,174.4 		"/>
		<polygon class="st377" points="390.8,160.3 421.9,155.1 404.2,175.3 		"/>
		<polygon class="st378" points="412.4,145.2 390.8,160.3 421.9,155.1 		"/>
		<polygon class="st379" points="392.4,131.6 390.8,160.3 412.4,145.2 		"/>
		<polygon class="st380" points="370.5,124.4 390.8,160.3 392.4,131.6 		"/>
		<polygon class="st381" points="361.9,158.9 370.5,124.4 390.8,160.3 		"/>
		<polygon class="st382" points="308.9,173.1 327.7,121.4 346.6,173.6 325.1,173.9 314.4,173.1 		"/>
		<polygon class="st9" points="348.8,165.2 327.9,121.4 346.1,173.6 		"/>
		<polygon class="st383" points="327.1,120.6 361.8,158.8 348.5,165.2 		"/>
		<polygon class="st384" points="361.9,158.9 370.5,124.4 343.4,138.5 		"/>
		<polygon class="st385" points="343.4,138.5 327.9,121.4 335.6,121.4 350.1,121.4 360.9,122.3 370.5,124.4 		"/>
		<polygon class="st386" points="241.9,160.3 274.4,162.9 253.6,177.1 		"/>
		<polygon class="st387" points="250.3,147.7 274.4,162.9 241.9,160.3 		"/>
		<polygon class="st388" points="274.4,162.9 274.2,129.9 250.3,147.7 		"/>
		<polygon class="st389" points="293.3,125 274.4,162.9 274.2,129.9 		"/>
		<polygon class="st390" points="307.4,121.9 274.4,162.9 293.3,125 		"/>
		<polygon class="st391" points="307.4,121.9 304.6,163.8 288.6,162.9 274.4,162.9 		"/>
		<polygon class="st392" points="304.6,163.8 323.8,133 309.8,173.1 		"/>
		<polygon class="st393" points="323.8,133 304.6,163.8 307.4,121.9 321.3,121.4 327.9,121.4 		"/>
		<polygon class="st394" points="247.8,206.6 259,205.4 247.6,193.1 		"/>
		<path class="st9" d="M259,205.4c-0.1,0.6,9.5,8.3,9.5,8.3l-5.2-13.2L259,205.4z"/>
		<polygon class="st395" points="263.3,200.5 247.6,193.1 259,205.4 		"/>
		<polygon class="st396" points="263.3,200.5 256,182.9 247.6,193.1 		"/>
		<polygon class="st397" points="247.6,193.1 256,182.9 251.7,186.1 		"/>
		<polygon class="st398" points="260.5,193.9 261.9,181.7 256,182.9 		"/>
		<polygon class="st399" points="249.3,217.6 268.5,213.7 247.8,206.6 		"/>
		<polygon class="st400" points="247.8,206.6 268.5,213.7 259,205.4 		"/>
		<polygon class="st401" points="268.5,213.7 255.7,229.4 251.1,222.7 249.3,217.6 		"/>
		<polygon class="st402" points="268.5,213.7 261.9,235.1 255.7,229.4 		"/>
		<polygon class="st403" points="268.5,213.7 272.6,227.8 261.9,235.1 		"/>
		<polygon class="st404" points="272.6,227.8 270.9,238.5 261.9,235.1 		"/>
		<polygon class="st405" points="271.7,233.2 280.6,235.1 272.6,227.8 		"/>
		<polygon class="st9" points="280.6,235.1 286.6,230 281.4,223.8 		"/>
		<polygon class="st406" points="281.4,223.8 272.6,227.8 280.6,235.1 		"/>
		<polygon class="st407" points="281.4,223.8 272.6,223.8 272.6,227.8 		"/>
		<polygon class="st9" points="272.6,223.8 274.2,216.1 268.5,213.7 272.6,227.8 		"/>
		<polygon class="st408" points="274.2,216.1 281.4,223.8 272.6,223.8 		"/>
		<polygon class="st409" points="280.6,235.1 274.2,239.8 270.9,238.5 271.7,233.2 		"/>
		<polygon class="st410" points="280.6,235.1 292.2,239.7 274.2,239.8 		"/>
		<polygon class="st411" points="286.6,230 289.7,233.6 287.2,237.7 280.6,235.1 		"/>
		<polygon class="st412" points="289.7,233.6 297.6,236.9 292.2,239.7 287.2,237.7 		"/>
		<polygon class="st413" points="261.9,181.7 273.4,193.1 260.5,193.9 		"/>
		<polygon class="st414" points="273.4,193.1 264.8,204.3 260.5,193.9 		"/>
		<polygon class="st415" points="269.4,198.3 274.2,216.1 268.5,213.7 264.8,204.3 		"/>
		<polygon class="st416" points="273.4,193.1 274.2,216.1 269.4,198.3 		"/>
		<polygon class="st417" points="273.4,193.1 284.3,181.5 261.9,181.7 		"/>
		<polygon class="st418" points="273.4,193.1 289.7,197.8 284.3,181.5 		"/>
		<polygon class="st419" points="289.7,197.8 295.5,195.5 284.3,181.5 		"/>
		<polygon class="st420" points="295.5,195.5 298.8,195.5 284.3,181.5 		"/>
		<polygon class="st421" points="298.8,195.5 298.8,181.5 284.3,181.5 		"/>
		<polygon class="st422" points="298.8,189.9 303.5,189.9 298.8,181.5 		"/>
		<polygon class="st423" points="303.5,189.9 313.3,188.6 306.6,185.1 298.8,181.5 		"/>
		<polygon class="st424" points="303.5,189.9 303.5,196.2 313.3,188.6 		"/>
		<polygon class="st425" points="303.5,196.2 317.7,194.5 313.3,188.6 		"/>
		<polygon class="st426" points="298.8,189.9 303.5,196.2 303.5,189.9 		"/>
		<polygon class="st427" points="303.5,196.2 300.4,209.5 298.8,195.5 298.8,189.9 		"/>
		<path class="st9" d="M295.5,195.5c-0.3,0.1-0.9,8.2-0.9,8.2l5.8,6.4L295.5,195.5z"/>
		<polygon class="st428" points="295.5,195.5 300.4,210 298.8,195.5 		"/>
		<polygon class="st429" points="303.5,196.2 306.1,198.9 300.4,209.5 		"/>
		<polygon class="st430" points="306.1,198.9 305.4,205.4 300.4,210 		"/>
		<polygon class="st431" points="300.4,210 295.4,215.5 294.6,203.6 		"/>
		<polygon class="st432" points="300.4,210 301.2,213.6 295.4,215.5 		"/>
		<polygon class="st433" points="301.2,213.6 303.5,212.8 302.7,207.9 300.4,210 		"/>
		<polygon class="st9" points="299.6,214.5 299.6,222.7 302.7,217.5 		"/>
		<polygon class="st434" points="302.7,217.5 303.5,212.8 299.6,214.5 		"/>
		<polygon class="st9" points="295.4,215.5 295.4,222.9 298.4,219.6 		"/>
		<polygon class="st435" points="298.4,219.6 298.4,214.5 295.4,215.5 		"/>
		<path class="st436" d="M298.4,219.6c-0.1,0.7-2.8,7.1-2.8,7.1l-0.3-3.8L298.4,219.6z"/>
		<polygon class="st437" points="295.4,222.9 292.5,229.4 295.7,226.7 		"/>
		<polygon class="st438" points="302.7,217.5 300.2,226.1 299.6,222.7 		"/>
		<path class="st439" d="M299.6,222.9c0,0.1-1.6,6.3-1.6,6.3l2.2-3L299.6,222.9z"/>
		<polygon class="st440" points="274.2,216.1 289.7,197.8 273.4,193.1 		"/>
		<polygon class="st441" points="289.7,197.8 286.6,230 274.2,216.1 		"/>
		<polygon class="st442" points="289.7,197.8 294.6,203.6 295.5,195.5 		"/>
		<polygon class="st443" points="294.6,203.6 286.6,230 289.7,197.8 		"/>
		<polygon class="st444" points="295.4,215.5 286.6,230 294.6,203.6 		"/>
		<polygon class="st445" points="295.4,215.5 295.4,222.9 292.5,229.4 289.7,233.6 286.6,230 		"/>
		<polygon class="st446" points="292.5,229.4 297.6,236.9 289.7,233.6 		"/>
		<polygon class="st447" points="295.7,226.7 298,229.1 299.6,222.9 299.6,214.5 301.2,213.6 298.4,214.5 298.4,219.6 		"/>
		<polygon class="st448" points="298,229.1 297.6,236.9 292.5,229.4 295.7,226.7 		"/>
		<polygon class="st449" points="307.4,230 300.4,238.1 310.9,230.2 307.4,230 313.6,222.8 313.7,222.7 298,229.1 		"/>
		<polygon class="st450" points="300.2,226.1 316.8,215.5 316.4,218.2 313.7,222.7 298,229.1 		"/>
		<polygon class="st451" points="302.7,217.5 316.8,215.5 300.2,226.1 		"/>
		<polygon class="st452" points="306.1,198.9 317.7,194.5 303.5,196.2 		"/>
		<polygon class="st453" points="305.4,205.4 317.7,194.5 306.1,198.9 		"/>
		<polygon class="st454" points="303.5,212.8 308.9,209.5 302.7,207.9 		"/>
		<polygon class="st455" points="308.9,209.5 317.7,194.5 302.7,207.9 		"/>
		<polygon class="st456" points="308.9,209.5 316.8,215.5 317.4,211.5 317.7,194.5 		"/>
		<polygon class="st457" points="303.5,212.8 302.7,217.5 316.8,215.5 308.9,209.5 		"/>
		<polygon class="st9" points="298.4,289.4 304.3,287.3 303.5,292.9 		"/>
		<polygon class="st9" points="304.3,287.3 315.1,280.1 315.9,288.3 		"/>
		<polygon class="st458" points="315.9,288.3 310.8,290.1 304.3,287.3 		"/>
		<polygon class="st459" points="310.8,290.1 313.9,296.9 304.3,287.3 		"/>
		<polygon class="st460" points="303.5,292.9 313.9,296.9 304.3,287.3 		"/>
		<polygon class="st461" points="315.9,288.3 317.3,290.6 310.8,290.1 		"/>
		<path class="st462" d="M317.3,290.6c-0.1,0.4-3.4,6.3-3.4,6.3l-3-6.8L317.3,290.6z"/>
		<polygon class="st463" points="317.3,290.6 326.4,288.7 315.9,288.3 		"/>
		<polygon class="st464" points="326.4,288.7 326.4,285.3 315.9,288.3 		"/>
		<polygon class="st465" points="326.4,285.3 336.4,286.2 326.4,288.7 		"/>
		<polygon class="st466" points="336.4,286.2 343.7,290.1 326.4,288.7 		"/>
		<polygon class="st467" points="336.4,286.2 354.6,288.2 343.7,290.1 		"/>
		<polygon class="st468" points="343.7,290.1 352.7,293.5 354.6,288.2 		"/>
		<polygon class="st9" points="352.7,293.5 358.4,294.3 360.6,290.8 		"/>
		<polygon class="st469" points="360.6,290.8 354.6,288.2 352.7,293.5 		"/>
		<polygon class="st9" points="354.6,288.2 365.2,288.2 360.6,290.8 		"/>
		<path class="st470" d="M315.1,280.1c0,0,12.6-2.5,12.4-2.2S316,288.3,316,288.3L315.1,280.1z"/>
		<polygon class="st471" points="327.5,277.9 326.4,285.3 315.9,288.3 		"/>
		<polygon class="st472" points="327.5,277.9 344.4,278.6 326.4,285.3 		"/>
		<polygon class="st473" points="344.4,278.6 365.2,288.2 354.6,288.2 		"/>
		<polygon class="st474" points="344.4,278.6 354.6,288.2 336.4,286.2 326.4,285.3 		"/>
		<polygon class="st475" points="313.9,296.9 333.9,297.4 317.3,290.6 		"/>
		<polygon class="st476" points="326.4,288.7 333.9,297.4 317.3,290.6 		"/>
		<polygon class="st477" points="343.7,290.1 333.9,297.4 326.4,288.7 		"/>
		<polygon class="st478" points="343.7,290.1 352.7,293.5 346.6,297.4 333.9,297.4 		"/>
		<polygon class="st479" points="346.6,297.4 356.6,296.9 358.4,294.3 352.7,293.5 		"/>
		<polygon class="st480" points="403.4,320.7 404,359 370.7,396.8 		"/>
		<polygon class="st481" points="403.9,319.7 370.9,347.8 370.9,396.6 		"/>
		<polygon class="st482" points="370.9,348.6 351,358.8 370.9,396.6 		"/>
		<polygon class="st9" points="351,358.8 340,362.9 335,391.6 		"/>
		<polygon class="st483" points="340,362.9 325.6,362.9 335,391.6 		"/>
		<polygon class="st9" points="325.6,362.9 309.1,358.8 289.7,398.9 		"/>
		<polygon class="st484" points="289.7,398.9 335,391.6 325.6,362.9 		"/>
		<polygon class="st485" points="335,391.6 370.9,396.6 351,358.8 		"/>
		<polygon class="st486" points="309.1,358.8 291,348.6 289.7,398.9 		"/>
		<polygon class="st487" points="291,348.6 277.6,336.3 289.7,398.9 		"/>
		<polygon class="st488" points="289.7,398.9 261.5,367.6 277.6,336.3 		"/>
		<polygon class="st489" points="261.5,367.6 261.9,320.9 277.6,336.3 		"/>
		<polygon class="st490" points="403.9,359.3 409.9,375.2 370.7,396.6 		"/>
		<polygon class="st491" points="409.9,375.2 417.7,388.9 370.9,396.6 		"/>
		<polygon class="st492" points="413.7,381.9 422.2,383.8 427.1,388.3 417.7,388.9 		"/>
		<polygon class="st493" points="417.7,388.9 427.1,397.1 427.1,388.3 		"/>
		<polygon class="st494" points="427.1,397.1 370.9,396.6 417.7,388.9 		"/>
		<polygon class="st495" points="261.5,367.6 259.6,373.8 289.7,398.9 		"/>
		<polygon class="st496" points="259.6,373.8 247.3,383.3 250.1,400.1 		"/>
		<polygon class="st497" points="250.1,400.1 289.7,398.9 259.6,373.8 		"/>
		<polygon class="st498" points="250.1,400.1 263.6,421.4 289.7,398.9 		"/>
		<polygon class="st499" points="263.6,421.4 280.8,435.3 289.7,398.9 		"/>
		<polygon class="st500" points="289.7,398.9 320.6,433.3 335,391.6 		"/>
		<polygon class="st501" points="320.6,433.3 280.8,435.3 289.7,398.9 		"/>
		<polygon class="st9" points="320.6,433.3 312.4,449.1 294.3,443.1 		"/>
		<polygon class="st502" points="280.8,435.3 294.3,443.1 320.6,433.3 		"/>
		<polygon class="st503" points="320.6,433.3 364.4,421.4 335,391.6 		"/>
		<polygon class="st504" points="364.4,421.4 341.8,453.8 320.6,433.3 		"/>
		<polygon class="st505" points="320.6,433.3 341.8,453.8 312.4,449.1 		"/>
		<polygon class="st506" points="364.4,421.4 370.9,396.6 335,391.6 		"/>
		<polygon class="st507" points="370.9,396.6 364.4,421.4 390.4,438.2 		"/>
		<polygon class="st508" points="370.9,396.6 411.9,421.4 390.4,438.2 		"/>
		<polygon class="st509" points="411.9,421.4 420.4,410.2 370.9,396.6 		"/>
		<polygon class="st510" points="420.4,410.2 427.1,397.1 370.9,396.6 		"/>
		<polygon class="st511" points="341.8,453.8 364.4,450.6 364.4,421.4 		"/>
		<polygon class="st512" points="364.4,450.6 390.4,438.2 364.4,421.4 		"/>
		<polygon class="st513" points="258.6,296.9 262.1,310.9 277.6,299.2 		"/>
		<polygon class="st514" points="262.1,310.9 261.9,320.9 280.8,318.2 		"/>
		<polygon class="st515" points="280.8,318.2 277.6,336.3 261.9,320.9 		"/>
		<polygon class="st516" points="280.8,318.2 277.6,299.2 262.1,310.9 		"/>
		<polygon class="st9" points="280.8,318.2 311.5,336.3 291,348.6 		"/>
		<polygon class="st517" points="280.8,318.2 291,348.6 277.6,336.3 		"/>
		<polygon class="st518" points="311.5,336.3 309.1,358.8 291,348.6 		"/>
		<polygon class="st519" points="311.5,336.3 325.6,362.9 309.1,358.8 		"/>
		<polygon class="st520" points="311.5,336.3 346,336.3 325.6,362.9 		"/>
		<polygon class="st521" points="346,336.3 351,358.8 340,362.9 		"/>
		<polygon class="st522" points="346,336.3 340,362.9 325.6,362.9 		"/>
		<polygon class="st523" points="345.7,335.9 371,348.7 351,358.9 		"/>
		<polygon class="st524" points="346,336.3 391.4,307.4 370.9,348.6 		"/>
		<polygon class="st525" points="391.4,305.6 403.9,319.7 370.9,348.6 		"/>
		<polygon class="st526" points="403.9,319.7 411.9,300.9 391.4,307.4 		"/>
		<polygon class="st527" points="411.9,300.9 414.9,283.1 385.1,280.1 		"/>
		<path class="st528" d="M385.1,280.1c1,0.8,6.3,27.3,6.3,27.3l20.5-6.5L385.1,280.1z"/>
		<polygon class="st529" points="277.6,299.2 303.5,292.9 280.8,318.2 		"/>
		<polygon class="st530" points="303.5,292.9 311.5,336.3 280.8,318.2 		"/>
		<polygon class="st531" points="298.4,289.4 277.6,299.2 303.5,292.9 		"/>
		<polygon class="st532" points="298.4,289.4 294.1,257.6 277.6,299.2 		"/>
		<polygon class="st533" points="304.3,287.3 305.8,252.8 294.1,257.6 		"/>
		<polygon class="st534" points="304.3,287.3 298.4,289.4 294.1,257.6 		"/>
		<polygon class="st535" points="315.1,280.1 310.8,258.3 305.8,252.8 304.3,287.3 		"/>
		<polygon class="st536" points="327.5,277.9 310.8,258.3 315.1,280.1 		"/>
		<polygon class="st537" points="327.5,277.9 333.9,256.9 321.1,258.3 		"/>
		<polygon class="st538" points="321.1,258.3 327.5,277.9 310.8,258.3 		"/>
		<polygon class="st539" points="333.9,256.9 344.4,278.6 327.5,277.9 		"/>
		<polygon class="st540" points="344.4,278.6 354.1,256.6 346.6,257.6 		"/>
		<polygon class="st541" points="344.4,278.6 346.6,257.6 333.9,256.9 		"/>
		<polygon class="st542" points="354.1,256.6 365.2,288.2 344.4,278.6 		"/>
		<polygon class="st543" points="313.9,296.9 311.5,336.3 303.5,292.9 		"/>
		<polygon class="st544" points="313.9,296.9 346,336.3 311.5,336.3 		"/>
		<polygon class="st545" points="333.9,297.4 346,336.3 313.9,296.9 		"/>
		<polygon class="st546" points="346,336.3 357.6,312.6 333.9,297.4 		"/>
		<polygon class="st547" points="357.6,312.6 391.4,307.4 346,336.3 		"/>
		<polygon class="st548" points="357.6,312.6 356.6,296.9 333.9,297.4 		"/>
		<polygon class="st549" points="356.6,296.9 368.7,290.6 365.2,288.2 360.6,290.8 		"/>
		<polygon class="st550" points="368.7,290.6 357.6,312.6 356.6,296.9 		"/>
		<polygon class="st551" points="368.7,290.6 391.4,307.4 357.6,312.6 		"/>
		<polygon class="st552" points="368,290.2 385.4,279.8 391.8,307.6 		"/>
		<polygon class="st553" points="354.1,256.6 396.8,250.6 365.2,288.2 		"/>
		<polygon class="st554" points="385.1,280.1 383.1,266.9 365.2,288.2 368.7,290.6 		"/>
		<polygon class="st555" points="414.9,283.1 417.9,266.9 385.1,280.1 		"/>
		<polygon class="st556" points="383.1,266.9 417.9,266.9 385.1,280.1 		"/>
		<polygon class="st557" points="417.9,266.9 396.8,250.6 383.1,266.9 		"/>
		<polygon class="st9" points="417.9,266.9 423.8,260.6 396.8,250.6 		"/>
		<polygon class="st558" points="396.8,250.6 410.3,227.9 418.8,258.8 		"/>
		<polygon class="st559" points="356,240.3 396.8,250.6 354.1,256.6 358.4,249.8 		"/>
		<polygon class="st560" points="361.9,235.4 366.5,242.9 356,240.3 358.4,232.5 		"/>
		<polygon class="st561" points="367.3,237.5 396.8,250.6 366.5,242.9 361.9,235.4 		"/>
		<polygon class="st562" points="374.6,238.4 384.5,237.9 394.5,236.9 396.8,250.6 367.3,237.5 		"/>
		<polygon class="st563" points="394.5,236.9 403.9,231.6 410.3,227.9 396.8,250.6 		"/>
		<polygon class="st564" points="418.8,258.8 423.8,233.6 410.3,227.9 		"/>
		<polygon class="st565" points="423.8,260.6 434.2,247.8 423.8,233.6 		"/>
		<polygon class="st566" points="423.8,260.6 418.8,258.8 423.8,233.6 		"/>
		<polygon class="st567" points="434.2,247.8 438.6,235.6 428.7,240.3 		"/>
		<polygon class="st9" points="438.6,235.6 430.1,229.1 423.8,233.6 		"/>
		<polygon class="st568" points="438.6,235.6 428.7,240.3 423.8,233.6 		"/>
		<polygon class="st569" points="438.6,235.6 440.6,225.3 430.1,229.1 		"/>
		<polygon class="st570" points="440.6,225.3 442.7,211.3 425.4,211.8 		"/>
		<polygon class="st571" points="425.4,211.8 423.8,233.6 434,219.5 		"/>
		<polygon class="st572" points="434,219.5 440.6,225.3 430.1,229.1 423.8,233.6 		"/>
		<polygon class="st573" points="416,220 425.4,211.8 423.8,233.6 410.3,227.9 		"/>
		<polygon class="st9" points="425.4,211.8 429.9,200.5 417.9,204.9 		"/>
		<polygon class="st574" points="425.4,211.8 416,220 417.9,204.9 		"/>
		<polygon class="st575" points="429.9,200.5 442.7,211.3 425.4,211.8 		"/>
		<polygon class="st576" points="442.7,211.3 446.1,188.4 429.9,200.5 		"/>
		<polygon class="st577" points="446.1,188.4 438.9,182.3 429.9,200.5 		"/>
		<polygon class="st578" points="427.6,189.1 429.9,200.5 438.9,182.3 432.2,187.3 		"/>
		<polygon class="st579" points="419.4,196.2 417.9,204.9 429.9,200.5 427.6,189.1 		"/>
		<polygon class="st580" points="231.9,235.4 224.6,222.9 226.7,211.8 		"/>
		<polygon class="st581" points="224.6,222.9 221.6,199.9 223.3,195.3 226.7,211.8 		"/>
		<polygon class="st582" points="221.6,199.9 221.6,190.7 223.3,189.9 223.3,195.3 		"/>
		<polygon class="st583" points="341.4,203.6 344.9,199.9 341.9,193.9 		"/>
		<polygon class="st584" points="344.9,199.9 348.6,222.7 344.2,213.1 341.4,203.6 		"/>
		<polygon class="st585" points="344.9,199.9 354.1,225.3 348.6,222.7 		"/>
		<polygon class="st586" points="344.9,199.9 354.7,200.5 349.5,212.6 		"/>
		<polygon class="st587" points="354.7,200.5 342.7,191.6 341.9,193.9 344.9,199.9 		"/>
		<polygon class="st588" points="354.7,200.5 351,183.6 344.3,188.4 342.7,191.6 		"/>
		<polygon class="st451" points="360.3,181.1 354.7,200.5 351,183.6 		"/>
		<polygon class="st589" points="360.3,181.1 362.8,188.2 354.7,200.5 		"/>
		<polygon class="st590" points="362.8,188.2 376.2,179.1 360.3,181.1 		"/>
		<polygon class="st591" points="362.8,188.2 368.3,188.2 366.5,194.4 		"/>
		<polygon class="st592" points="362.8,188.2 362.8,194.5 366.5,194.4 		"/>
		<polygon class="st593" points="358.7,194.5 360.3,213.6 354.7,200.5 		"/>
		<polygon class="st594" points="349.5,212.6 360.3,213.6 354.7,200.5 		"/>
		<polygon class="st595" points="360.3,213.6 358.4,230.8 354.1,225.3 349.5,212.6 		"/>
		<polygon class="st596" points="362.8,194.5 360.3,213.6 358.7,194.5 		"/>
		<polygon class="st597" points="362.8,194.5 362.8,188.2 358.7,194.5 		"/>
		<polygon class="st598" points="366.5,194.4 370.9,196.1 360.3,213.6 362.8,194.5 		"/>
		<polygon class="st599" points="370.9,196.1 370.1,203.6 366.8,202.9 		"/>
		<polygon class="st600" points="360.3,213.6 368.9,211.5 366.8,202.9 		"/>
		<polygon class="st601" points="370.1,203.6 368.9,211.5 366.8,202.9 		"/>
		<path class="st602" d="M368.9,211.5c0,0.5,0,14.6,0,14.6l-3.7-13.7L368.9,211.5z"/>
		<polygon class="st603" points="359.1,224.5 365.2,212.4 360.3,213.6 		"/>
		<polygon class="st604" points="359.1,224.5 368.9,226.7 365.2,212.4 		"/>
		<polygon class="st605" points="368.9,226.7 367.3,235.6 358.4,230.8 359.1,224.5 		"/>
		<polygon class="st606" points="368.3,188.2 376.2,179.1 362.8,188.2 		"/>
		<polygon class="st607" points="370.9,196.1 376.2,179.1 368.3,188.2 366.5,194.4 		"/>
		<polygon class="st608" points="376.2,179.1 388.3,199.1 370.9,196.1 		"/>
		<polygon class="st609" points="388.3,199.1 393.5,193.9 376.2,179.1 		"/>
		<path class="st610" d="M393.5,193.9c-0.5-0.4-3.2-15.7-3.2-15.7l-14.1,1L393.5,193.9z"/>
		<polygon class="st611" points="393.5,193.9 407.4,178.8 394.6,177.8 390.3,178.1 		"/>
		<polygon class="st612" points="393.5,193.9 394,206.2 407.4,178.8 		"/>
		<polygon class="st613" points="388.3,199.1 387.1,202.4 388.3,203.6 391.3,201.4 393.7,197.6 393.5,193.9 		"/>
		<polygon class="st614" points="388.3,203.6 394,206.2 393.7,197.6 391.3,201.4 		"/>
		<polygon class="st615" points="387.1,202.4 381.5,197.9 388.3,199.1 		"/>
		<polygon class="st616" points="368.9,211.5 382.2,210.4 370.9,196.1 370.1,203.6 		"/>
		<polygon class="st617" points="382.2,210 381.5,197.9 370.9,196.1 		"/>
		<polygon class="st618" points="382.2,210 394,206.2 388.3,203.6 387.1,202.4 384.9,200.6 381.9,204.1 		"/>
		<polygon class="st619" points="381.9,204.1 384.9,200.6 381.5,197.9 		"/>
		<polygon class="st620" points="400.1,193.9 403,193.9 407.4,178.8 		"/>
		<polygon class="st621" points="406.6,181.8 410.3,183.7 412.3,181.1 407.4,178.8 		"/>
		<polygon class="st591" points="410.3,183.7 406.4,202.1 403,193.9 		"/>
		<polygon class="st622" points="410.3,183.7 403,193.9 406.6,181.8 		"/>
		<polygon class="st623" points="400.1,193.9 406.4,202.1 403,193.9 		"/>
		<polygon class="st624" points="400.1,193.9 401.8,200.5 406.4,202.1 		"/>
		<polygon class="st625" points="394,206.2 401.8,200.5 400.1,193.9 		"/>
		<polygon class="st626" points="394,206.2 406.4,202.1 401.8,200.5 		"/>
		<polygon class="st627" points="406.4,202.1 416.4,192 412.3,181.1 410.3,183.7 		"/>
		<polygon class="st628" points="368.9,226.1 382.2,210.4 368.9,211.5 		"/>
		<polygon class="st629" points="368.9,226.1 385.1,236.6 373.9,236 367.3,235.6 		"/>
		<polygon class="st630" points="382.2,210 385.1,236.6 368.9,226.1 		"/>
		<polygon class="st631" points="383.3,219.9 395.1,223.9 385.1,236.6 		"/>
		<polygon class="st632" points="395.1,223.9 403.9,231.6 395.1,234.3 385.1,236.6 		"/>
		<polygon class="st633" points="395.1,223.9 398.3,211.3 383.3,219.9 		"/>
		<polygon class="st144" points="398.3,211.3 382.2,210 383.3,219.9 		"/>
		<polygon class="st634" points="382.2,210 398.3,211.3 394,206.2 		"/>
		<polygon class="st635" points="394,206.2 406.4,202.1 398.3,211.3 		"/>
		<polygon class="st636" points="398.3,211.3 403.9,231.6 395.1,223.9 		"/>
		<polygon class="st637" points="398.3,211.3 411.2,224.4 403.9,231.6 		"/>
		<polygon class="st638" points="398.3,211.3 414.9,215.3 411.2,224.4 		"/>
		<polygon class="st639" points="398.3,211.3 416.4,203.6 416.4,192 406.4,202.1 		"/>
		<polygon class="st640" points="398.3,211.3 414.9,215.3 416.4,203.6 		"/>
		<polygon class="st641" points="254.1,378 247.3,376.1 247.3,383.3 		"/>
		<polygon class="st642" points="247.3,376.1 232.7,389.6 233.7,406.5 		"/>
		<polygon class="st643" points="233.7,406.5 241.4,421.4 247.3,376.1 		"/>
		<polygon class="st644" points="250.1,400.1 241.5,420.7 247.3,376.1 247.3,383.3 		"/>
		<polygon class="st645" points="263.6,421.4 241.4,421.4 250.1,400.1 		"/>
		<polygon class="st646" points="241.4,421.4 266.9,446.9 263.6,421.4 		"/>
		<polygon class="st647" points="280.8,435.3 266.9,446.9 263.6,421.4 		"/>
		<polygon class="st648" points="266.9,446.9 294.3,443.1 280.8,435.3 		"/>
		<polygon class="st649" points="266.9,446.9 288.9,459.8 294.3,443.1 		"/>
		<polygon class="st650" points="294.3,443.1 312.4,449.1 288.9,459.8 		"/>
		<polygon class="st651" points="288.9,459.8 320.6,469.8 312.4,449.1 		"/>
		<polygon class="st652" points="312.4,449.1 341.8,453.8 320.6,469.8 		"/>
		<polygon class="st653" points="320.6,469.8 353,470.8 341.8,453.8 		"/>
		<polygon class="st654" points="364.4,450.6 353,470.8 341.8,453.8 		"/>
		<polygon class="st655" points="353,470.8 388.9,458.1 364.4,450.6 		"/>
		<polygon class="st656" points="390.4,438.2 388.9,458.1 364.4,450.6 		"/>
		<polygon class="st657" points="388.9,458.1 416.9,440.1 390.4,438.2 		"/>
		<polygon class="st658" points="411.9,421.4 416.9,440.1 390.4,438.2 		"/>
		<polygon class="st659" points="416.9,440.1 439.4,412.4 411.9,421.4 		"/>
		<polygon class="st660" points="420.4,410.2 439.4,412.4 411.9,421.4 		"/>
		<polygon class="st661" points="427.1,397.1 439.4,412.4 420.4,410.2 		"/>
		<polygon class="st662" points="439.4,412.4 441.1,389.6 427.1,397.1 		"/>
		<polygon class="st663" points="427.1,388.3 441.1,389.6 427.1,397.1 		"/>
		<polygon class="st664" points="422.2,383.8 441.1,389.6 427.1,388.3 		"/>
		<polygon class="st665" points="239.5,383.3 224.4,388.1 232.7,389.6 		"/>
		<path class="st666" d="M224.4,388.1c0,0-39,25.5-39.5,25.5s31.8,60.8,31.8,60.8L224.4,388.1z"/>
		<polygon class="st667" points="233.7,406.5 216.8,474.4 224.4,388.1 		"/>
		<polygon class="st668" points="233.7,406.5 232.7,389.6 224.4,388.1 		"/>
		<polygon class="st669" points="216.8,474.4 323.1,543.6 233.7,406.5 		"/>
		<polygon class="st670" points="288.9,459.8 323.1,543.6 241.4,421.4 266.9,446.9 		"/>
		<polygon class="st671" points="323.1,543.6 353,470.8 320.6,469.8 288.9,459.8 		"/>
		<polygon class="st670" points="323.1,543.6 454.1,581.3 353,470.8 		"/>
		<polygon class="st672" points="388.9,458.1 454.1,581.3 353,470.8 		"/>
		<polygon class="st673" points="416.9,440.1 454.1,581.3 388.9,458.1 		"/>
		<polygon class="st674" points="454.1,581.3 481.1,458.1 416.9,440.1 		"/>
		<polygon class="st675" points="439.4,412.4 481.1,458.1 416.9,440.1 		"/>
		<polygon class="st676" points="441.1,389.6 494.8,415.8 439.4,412.4 		"/>
		<polygon class="st677" points="494.8,415.8 481.1,458.1 439.4,412.4 		"/>
		<polygon class="st678" points="494.8,415.8 549.1,438.2 481.1,458.1 		"/>
		<polygon class="st679" points="549.1,438.2 575.4,459.4 510.4,507.3 		"/>
		<polygon class="st680" points="510.4,507.3 481.1,458.1 549.1,438.2 		"/>
		<polygon class="st681" points="510.4,507.3 454.1,581.3 481.1,458.1 		"/>
		<polygon class="st682" points="184.9,413.6 144.8,431.3 178.4,487.3 		"/>
		<polygon class="st669" points="178.4,487.3 216.8,474.4 184.9,413.6 		"/>
		<polygon class="st683" points="144.8,431.3 95.8,451.4 153.8,547.9 		"/>
		<polygon class="st684" points="153.8,547.9 178.4,487.3 144.8,431.3 		"/>
		<polygon class="st685" points="216.8,474.4 153.8,547.9 178.4,487.3 		"/>
		<polygon class="st686" points="153.8,547.9 323.1,543.6 216.8,474.4 		"/>
		<polygon class="st687" points="95.8,451.4 77.8,475.1 105.4,535.3 		"/>
		<polygon class="st688" points="105.4,535.3 121.8,531.9 95.8,451.4 		"/>
		<polygon class="st689" points="121.8,531.9 153.8,547.9 95.8,451.4 		"/>
		<polygon class="st690" points="77.8,475.1 64.4,495.7 79.2,519.7 		"/>
		<polygon class="st691" points="79.2,519.7 105.4,535.3 77.8,475.1 		"/>
		<polygon class="st692" points="64.4,495.7 51.2,524.7 71.8,529.2 		"/>
		<polygon class="st693" points="71.8,529.2 79.2,519.7 64.4,495.7 		"/>
		<polygon class="st694" points="71.8,529.2 105.4,535.3 79.2,519.7 		"/>
		<polygon class="st695" points="121.8,531.9 127.2,576.9 105.4,535.3 		"/>
		<polygon class="st696" points="127.2,576.9 153.8,547.9 121.8,531.9 		"/>
		<polygon class="st697" points="51.2,524.7 41.9,547.9 56.2,546.2 		"/>
		<polygon class="st698" points="56.2,546.2 71.8,529.2 51.2,524.7 		"/>
		<polygon class="st699" points="56.2,546.2 47.9,581.3 41.9,547.9 		"/>
		<polygon class="st700" points="47.9,581.3 70.2,558.4 56.2,546.2 		"/>
		<polygon class="st701" points="70.2,558.4 71.8,529.2 56.2,546.2 		"/>
		<polygon class="st702" points="70.2,558.4 105.4,535.3 71.8,529.2 		"/>
		<polygon class="st703" points="70.2,558.4 84.7,581.3 47.9,581.3 		"/>
		<polygon class="st704" points="84.7,581.3 105.4,535.3 70.2,558.4 		"/>
		<polygon class="st705" points="41.9,547.9 33.9,573.4 47.9,581.3 		"/>
		<polygon class="st694" points="33.9,573.4 29.4,590.7 40.9,591.7 		"/>
		<polygon class="st706" points="29.4,590.7 22.7,616.7 56.2,630.7 		"/>
		<polyline class="st707" points="29.4,590.7 56.2,630.7 40.9,591.7 47.9,581.3 33.9,573.4 		"/>
		<polygon class="st708" points="47.9,581.3 56.2,630.7 40.9,591.7 		"/>
		<polygon class="st709" points="84.7,581.3 56.2,630.7 47.9,581.3 		"/>
		<polygon class="st710" points="127.2,576.9 116.3,579.9 113.9,551.6 		"/>
		<polygon class="st591" points="116.3,579.9 128.7,600.9 128.7,610.7 		"/>
		<polygon class="st711" points="128.7,610.7 117.9,590.7 116.3,579.9 		"/>
		<polygon class="st712" points="117.9,590.7 112.2,579.9 116.3,579.9 		"/>
		<polygon class="st713" points="112.2,579.9 113.9,551.6 116.3,579.9 		"/>
		<polygon class="st714" points="84.7,581.3 101.9,579.9 105.4,535.3 		"/>
		<polygon class="st715" points="101.9,579.9 113.9,551.6 105.4,535.3 		"/>
		<polygon class="st716" points="101.9,579.9 112.2,579.9 113.9,551.6 		"/>
		<polygon class="st717" points="22.7,616.7 15.2,644.7 39.4,644.7 		"/>
		<polygon class="st718" points="39.4,644.7 56.2,630.7 22.7,616.7 		"/>
		<path class="st719" d="M39.4,644.7c0,0-9.5,30.5-10,29.8s-14.3-29.8-14.3-29.8H39.4z"/>
		<polygon class="st720" points="15.2,644.7 9.9,667.2 29.4,674.4 		"/>
		<path class="st721" d="M29.4,674.4c0,0,35.9-10,34.6-11.8s-24.6-18-24.6-18L29.4,674.4z"/>
		<polygon class="st722" points="64,662.7 66.3,685.4 29.4,674.4 		"/>
		<polygon class="st723" points="64,662.7 56.2,630.7 39.4,644.7 		"/>
		<polygon class="st724" points="64,662.7 103.7,607.7 56.2,630.7 		"/>
		<polygon class="st653" points="103.7,607.7 84.7,581.3 56.2,630.7 		"/>
		<path class="st725" d="M64,662.7c0,0,60.6,4.3,60.8,5c0.2,0.8-58.5,17.8-58.5,17.8L64,662.7z"/>
		<polygon class="st726" points="66.3,685.4 95.1,692.2 124.8,667.7 		"/>
		<polygon class="st727" points="95.1,692.2 137.8,689.4 124.8,667.7 		"/>
		<path class="st728" d="M124.8,667.7c0,0,10.9-2,10.9-1.3s2.1,23,2.1,23L124.8,667.7z"/>
		<polygon class="st729" points="135.7,666.4 140.7,665.2 137.8,689.4 		"/>
		<polygon class="st730" points="137.8,689.4 140.7,684.4 140.7,665.2 		"/>
		<path class="st731" d="M124.8,667.7c1.4-0.3-21.1-60-21.1-60l-39.7,55L124.8,667.7z"/>
		<polygon class="st732" points="103.7,607.7 140.7,650.2 124.8,667.7 		"/>
		<polyline class="st733" points="140.7,648.9 140.7,641.4 131.3,622.4 140.7,650.2 122.5,629.3 131.3,622.4 		"/>
		<polygon class="st734" points="131.3,622.4 103.7,607.7 122.5,629.3 		"/>
		<polygon class="st735" points="103.7,607.7 101.9,579.9 84.7,581.3 		"/>
		<polygon class="st736" points="112.2,579.9 103.7,607.7 101.9,579.9 		"/>
		<polygon class="st737" points="128.7,610.7 103.7,607.7 112.2,579.9 		"/>
		<polygon class="st738" points="128.7,610.7 131.3,622.4 103.7,607.7 		"/>
		<polygon class="st739" points="128.7,600.9 127.2,576.9 116.3,579.9 		"/>
		<polygon class="st740" points="128.7,610.7 178.4,566.9 127.2,576.9 		"/>
		<path class="st741" d="M178.4,566.9c0,0-23.5-20.2-24.7-19s-26.6,29-26.6,29L178.4,566.9z"/>
		<polygon class="st742" points="178.4,566.9 265.4,662.7 128.7,610.7 		"/>
		<polygon class="st743" points="131.3,622.4 164.9,624.4 128.7,610.7 		"/>
		<polygon class="st744" points="140.7,641.4 146.2,636.3 131.3,622.4 		"/>
		<polygon class="st745" points="146.2,636.3 164.9,624.4 131.3,622.4 		"/>
		<polygon class="st746" points="140.7,650.2 148.1,642.7 140.7,641.4 		"/>
		<polygon class="st747" points="148.1,642.7 146.2,636.3 140.7,641.4 		"/>
		<polygon class="st748" points="148.1,642.7 164.9,624.4 146.2,636.3 		"/>
		<polygon class="st749" points="135.7,666.4 140.7,650.2 124.8,667.7 		"/>
		<polygon class="st750" points="140.7,665.2 140.7,650.2 135.7,666.4 		"/>
		<polygon class="st751" points="140.7,650.2 143.1,665.2 140.7,665.2 		"/>
		<path class="st752" d="M143.1,665.2c-0.1,0.9,0,19,0,19l-2.4,0.3L143.1,665.2z"/>
		<polygon class="st753" points="143.1,665.2 140.7,684.4 140.7,665.2 		"/>
		<polygon class="st710" points="143.1,665.2 155.5,684.4 143.1,684.2 		"/>
		<path class="st754" d="M143.1,665.2c0,0,15.5-0.3,15.4,0s-2.9,19.3-2.9,19.3L143.1,665.2z"/>
		<polygon class="st755" points="158.4,665.2 167.3,686.2 155.5,684.4 		"/>
		<polygon class="st756" points="140.7,650.2 175.9,650.2 143.1,665.2 		"/>
		<polygon class="st757" points="164.9,624.4 175.9,650.2 140.7,650.2 		"/>
		<polygon class="st758" points="158.4,665.2 175.9,650.2 143.1,665.2 		"/>
		<path class="st759" d="M167.3,686.2l14.1-3.5c0,0-19.4-9-19.1-8.2C162.7,675.2,167.3,686.2,167.3,686.2z"/>
		<polygon class="st760" points="175.9,650.2 162.4,674.5 158.4,665.2 		"/>
		<polygon class="st719" points="175.9,650.2 181.4,682.7 162.4,674.5 		"/>
		<polygon class="st761" points="175.9,650.2 265.4,662.7 164.9,624.4 		"/>
		<polygon class="st762" points="181.4,682.7 265.4,662.7 175.9,650.2 		"/>
		<polygon class="st741" points="323.1,543.6 265.4,662.7 178.4,566.9 		"/>
		<polygon class="st763" points="153.8,547.9 178.4,566.9 323.1,543.6 		"/>
		<polygon class="st764" points="265.4,662.7 321,674.1 280.3,631.9 		"/>
		<polygon class="st765" points="280.3,631.9 341.8,641.4 321,674.1 		"/>
		<polygon class="st766" points="341.8,641.4 323.1,543.6 280.3,631.9 		"/>
		<polygon class="st767" points="341.8,641.4 454.1,581.3 323.1,543.6 		"/>
		<polygon class="st768" points="341.8,641.4 361.9,659.6 321,674.1 		"/>
		<polygon class="st769" points="391.5,614.8 361.9,659.6 341.8,641.4 		"/>
		<polygon class="st770" points="391.5,614.8 432.4,653 361.9,659.6 		"/>
		<polygon class="st771" points="454.1,581.3 432.4,653 391.5,614.8 		"/>
		<polygon class="st772" points="454.1,581.3 501.9,650.2 432.4,653 		"/>
		<polygon class="st772" points="510.4,507.3 501.9,650.2 454.1,581.3 		"/>
		<path class="st722" d="M501.9,650.2c0,0,23.5,2.3,23.5,0s-19.9-61.3-19.9-61.3L501.9,650.2z"/>
		<polygon class="st773" points="525.4,650.2 522.4,591.7 505.6,588.9 		"/>
		<polygon class="st381" points="361.9,158.9 371.2,164.6 390.8,160.3 		"/>
		<polygon class="st366" points="351,183.6 360.3,181.1 357.4,177.8 		"/>
		<polygon class="st429" points="294.6,203.6 300.4,210 295.5,195.5 		"/>
		<polygon class="st431" points="295.4,215.5 295.4,222.9 298.4,219.6 		"/>
		<polygon class="st431" points="299.6,214.5 299.6,222.7 302.7,217.5 		"/>
		<polygon class="st407" points="281.4,223.8 280.6,235.1 286.6,230 		"/>
		<polygon class="st413" points="259,205.4 268.5,213.7 263.3,200.5 		"/>
		<polygon class="st413" points="272.6,227.8 272.6,223.3 274.2,216.1 268.5,213.7 		"/>
		<polygon class="st774" points="298,229.1 297.6,236.9 305,232.8 307.4,230 		"/>
		<polygon class="st774" points="313.7,222.7 310.9,230.2 307.4,230 		"/>
		<polygon class="st775" points="312.1,110.3 314.4,112 307.4,121.9 305.3,112.9 		"/>
		<polygon class="st776" points="314.4,112 317.4,111.6 321.3,121.4 307.4,121.9 		"/>
		<polygon class="st777" points="317.4,111.6 318.3,106.2 324.9,105.5 		"/>
		<polygon class="st778" points="315.2,96.2 318.3,106.2 324.9,105.5 324.2,102.2 		"/>
		<polygon class="st166" points="334.7,95.1 324.2,102.2 315.2,96.2 		"/>
		<polygon class="st161" points="335.6,108.7 340.4,110.5 342.8,104.8 335.6,102.9 		"/>
		<polygon class="st176" points="348.1,101.6 346.3,108.5 341.9,105.1 		"/>
		<polygon class="st302" points="395.1,234.3 394.5,236.9 403.9,231.6 		"/>
		<polygon class="st612" points="403,193.9 406.4,202.1 410.3,183.7 		"/>
		<polygon class="st779" points="417.9,204.9 425.4,211.8 429.9,200.5 		"/>
		<polygon class="st558" points="423.8,233.6 438.6,235.6 430.1,229.1 		"/>
		<polygon class="st228" points="295.2,72.5 297.4,81.9 309.9,78.7 		"/>
		<polygon class="st120" points="368.5,91.8 377,98.6 382.1,91.8 		"/>
		<polygon class="st124" points="411,64.8 410.2,92.4 380.7,92.4 		"/>
		<polygon class="st124" points="379,108.9 379,103.1 396.7,99.4 		"/>
		<polygon class="st124" points="362.6,119.2 370.5,124.4 370.5,118.6 		"/>
		<polygon class="st780" points="300.4,238.1 306.6,244.2 310.9,230.2 		"/>
		<polygon class="st47" points="315.7,223.5 315.1,236.5 310.8,230 		"/>
		<polygon class="st41" points="305.8,252.8 310.8,258.3 314.6,248.6 		"/>
		<polygon class="st342" points="346.4,251.5 354.1,256.6 356,240.3 		"/>
		<polygon class="st342" points="340.9,252.8 346.4,251.5 343.6,248.6 		"/>
		<polygon class="st464" points="304.3,287.3 315.9,288.3 315.1,280.1 		"/>
		<polygon class="st467" points="298.4,289.4 303.5,292.9 304.3,287.3 		"/>
		<polygon class="st781" points="352.7,293.5 358.4,294.3 360.6,290.8 		"/>
		<polygon class="st781" points="354.6,288.2 360.6,290.8 365.2,288.2 		"/>
		<polygon class="st782" points="311.5,336.3 291,348.6 280.8,318.2 		"/>
		<polygon class="st783" points="248.4,221.6 253.6,231.2 241.7,226.2 		"/>
		<polygon class="st21" points="241.7,200.5 241.6,226.2 241.4,225.6 230.4,217 		"/>
		<polygon class="st784" points="223.3,195.3 226.7,211.8 234.1,211.8 		"/>
		<polygon class="st23" points="234.1,198.9 238.6,195.3 238.8,196.2 		"/>
		<polygon class="st23" points="245.3,203.6 244,195.3 238.6,195.3 		"/>
		<polygon class="st63" points="237.6,179.8 237.3,189.5 241.3,187.6 		"/>
		<polygon class="st61" points="241.3,184.6 241.3,187.6 243.6,187.8 		"/>
		<polygon class="st596" points="362.8,188.2 366.5,194.4 368.3,188.2 		"/>
		<polygon class="st596" points="313.3,188.6 317.7,194.5 318.9,188.6 		"/>
		<polygon class="st785" points="306.6,185.1 313.3,188.6 314,184.5 		"/>
		<polygon class="st785" points="298.8,181.5 306.6,185.1 306.6,179.8 		"/>
		<polygon class="st786" points="284.5,177.8 306.6,179.8 306.6,177.8 		"/>
		<polygon class="st786" points="314.7,179.1 314,184.5 306.6,177.8 		"/>
		<polygon class="st347" points="252.6,176.1 256,180.8 269.6,166.5 		"/>
		<polygon class="st787" points="247.6,193.1 251.7,186.1 246.2,181.5 		"/>
		<polygon class="st787" points="256,182.9 255.4,179.8 256,180.8 256.7,180.1 262.6,181.5 		"/>
		<polygon class="st787" points="330.3,197.8 338.3,197.8 341.6,189.9 		"/>
		<polygon class="st556" points="396.8,250.6 417.9,266.9 423.8,260.6 		"/>
		<polygon class="st788" points="289.7,398.9 309.1,358.8 325.6,362.9 		"/>
		<polygon class="st501" points="335,391.6 340,362.9 351,358.8 		"/>
		<polygon class="st789" points="320.6,433.3 312.4,449.1 294.3,443.1 		"/>
		<polygon class="st733" points="131.3,622.4 140.7,650.2 140.7,648.9 		"/>
		<polygon class="st747" points="116.3,579.9 128.7,610.7 128.2,600.1 		"/>
		<polygon class="st790" points="575.4,459.4 592.8,489.3 510.4,507.3 		"/>
		<polygon class="st791" points="505.6,588.9 510.4,507.3 592.8,489.3 		"/>
		<polygon class="st792" points="522.4,591.7 505.6,588.9 532.5,558.1 547.4,566.9 		"/>
		<polygon class="st793" points="525.4,650.2 536.4,627.3 524,621.6 		"/>
		<polygon class="st794" points="522.4,591.7 547.4,566.9 536.4,627.3 524,621.6 		"/>
		<path class="st795" d="M592.8,489.3c0,0,19,47.7,19,49.8c0,2.2-79.3,19-79.3,19L592.8,489.3z"/>
		<polygon class="st796" points="547.4,566.9 572.2,549.4 532.5,558.1 		"/>
		<polygon class="st797" points="525.4,650.2 526.5,686.9 553.8,689.9 		"/>
		<path class="st798" d="M536.4,627.3l-11,22.9l28.3,39.8c0,0,39-3.3,39-4.3S536.4,627.3,536.4,627.3z"/>
		<polygon class="st799" points="611.8,539.1 624.8,576.9 574.1,611.9 		"/>
		<polygon class="st800" points="536.4,627.3 611.8,539.1 572.2,549.4 547.4,566.9 		"/>
		<polygon class="st801" points="574.1,611.9 611.8,539.1 536.4,627.3 		"/>
		<polygon class="st802" points="592.8,685.6 657.4,670.1 536.4,627.3 		"/>
		<polygon class="st803" points="624.8,576.9 639.1,620.1 536.4,627.3 574.1,611.9 		"/>
		<polygon class="st712" points="657.4,670.1 639.1,620.1 536.4,627.3 		"/>
		<polygon class="st384" points="327.1,120.3 345.7,174.7 349.6,166.3 		"/>
		<polygon class="st804" points="226.7,211.8 231.3,232.7 231.5,215.5 		"/>
		<polygon class="st805" points="241.7,226.2 242.5,229.8 234.4,235.1 		"/>
		<polygon class="st806" points="231.5,215.5 231.3,232.7 234.4,235.1 		"/>
		<polygon class="st783" points="241.7,226.2 234.4,235.1 231.5,215.5 		"/>
	</g>
</g>
</svg>
